/* XPM */
static char *e29f5111c8014e1790b7d573749adab3ewQhSR8Yn6rfTZLR[] = {
/* columns rows colors chars-per-pixel */
"64 64 27 1 ",
"  c black",
". c gray27",
"X c #464646",
"o c #67674D",
"O c #67674E",
"+ c #68684E",
"@ c #906F45",
"# c #907045",
"$ c #917045",
"% c #917046",
"& c #B89034",
"* c #B99034",
"= c #B99134",
"- c #B99135",
"; c #D8B034",
": c #D8B134",
"> c #D9B134",
", c #D9B135",
"< c #80806F",
"1 c #98986F",
"2 c #808070",
"3 c #818170",
"4 c #999970",
"5 c #E8D878",
"6 c #E8D978",
"7 c #E9D978",
"8 c #6FC8A0",
/* pixels */
"8888888888882222oooo..XX77775555oo++++++oo++OOOOOOOO222288888888",
"8888888888882222oooo..XX77775555++++++++oo++OOOOOOOO222288888888",
"8888888888882222ooooXXXX66665557++++++++++ooOOOOOOOO222%88888888",
"8888888888882222ooooXXXX66665557++++++++++ooOOOOOOOO222%88888888",
"88882222OOOOOOOO....5577,,::XX..................OOOOOOOO22228888",
"88882222OOOOOOOO....5577::::....................OOOOOOOO22228888",
"88882222OOOOOOOO....5577::,:....................OOOOOOOO22228888",
"88882222OOOOOOOO....5577::,:....................OOOOOOOO22228888",
"8888OOOOOOOO........,,>>XXXX........XXXXXXXXXXXX....OO++OOOO2222",
"8888OOOOOOOO........,,>>XXXX........XXXXXXXXXXXX....OO++OOOO2222",
"8888OOOOOOOO........,:::XXXX........XXXXXXXXXXXX....OO++OOOO2222",
"8888OOOOOOOO........,:::XXXX..XX....XXXXXXXXXXXX....OO++OOOO2222",
"2222OOOO........XXXX$$$$:>>>XXXXXXXX....XXXX.....XXX%%%%%%%%OOOO",
"2222OOOO........XXXX$$$$:>>>XXXXXXXX....XXXX......XX%%%%%%%%OOOO",
"2222OOOO........XX..$$@@>>>>XXXXXXXX....XXXX....XXXX%%%%%%%%OOOO",
"2222OOOO............$$@@>>>>XXXXXXXX....XXXX....XXXX%%%%+%%%OOOO",
"++++........    XXXX,:::****7777        ....XXXX####77777777OOOO",
"++++..XX....    XXXX,:::****7777        ....XXXX####77777777OO++",
"++++XXXX....    XXXX::::***=7777        ....XXXX@@##77777777OO+O",
"++++XXXX....    XXXX::::***=7777        ...XXXXX@@@#77767777OOOO",
"OOO+....        XXXX,,,,    ****7777            6666::::XXXXOOOO",
"OOO+....        XXXX,,,,    ****7767            6666::::XXXXOOOO",
"OO++....        XXXX,,,,    **==5565            6666::::XX..ooOO",
"OO++....        XX..,,,,    **==5555            6666::::XX..oooO",
"OOOO            XXXX::::        @@$$7777    $$%%7777    ....++++",
"OOOO            XXXX::::        @@$$7777    %%%%7777    ....o+++",
"OOOO            XXXX::::        @$$$7777    %%%%7777    ....++++",
"OOOO            XXXX::::        @$$$7777    %%%%7777    ....++++",
"OOOO            XXXX--==,,>>        ----,,,,XXXX7777        ++++",
"OOOO            XXXX--==::>>        --==,,,,XXXX7777        ++++",
"OOOO            XXXX--==::::        ====,,,,XXXX7777        ++++",
"OOOO            XXXX--==::::        ====,,,,XXX.7777        ++++",
"OOOO            XXX.====&&&&,,,,        ****....:>>>        o+++",
"OOOO            XXX.====&&&&,,,,        ****....:>>>        oo++",
"OOOO            XX..====&&&&,,,,        ***-....>>>>        ++oo",
"OOOO            XX..====&&--,,,,        ***-....>>>>        +++o",
"OOOO            XXXX====    ---->>::        ....::::        OOOO",
"OOOO            XXXX====    ---->>::        ....::::        OOOO",
"OOOO            XXXX==--    ---->>::        ....::::        OOOO",
"OOOO            XXXX==--    ---->>,,        ....::::        OOOO",
"OOOO                ++++        ****>>>;    ....,,::        OOOO",
"OOOO                ++OO        ****>>;;    ....,::,        OOOO",
"OOOO                OOOO        ****:>,,    ....::,,        OOOO",
"OOOO                OOOO        ****>,,,    ....::,,        OOOO",
"OOOO                ++++&&&&        $$%%,,>>XX..:>>>        OOOO",
"OOOO                ++++&&&&        %$%%::>>....:::>        OOOO",
"OOOO                ++++&&&-        %%%%::::....;>>>        OOOO",
"OOOO                ++++&&&-        %%%%::::....;>>>        OOOO",
"OOOO....                ++++OOOO        $$$$XXXX;;;;        ++++",
"OOOO....                ++++OOOO        $$$$XXXX;;;;        ++++",
"ooOO....                ++++OOOO        $$$$XX.X;;;;        ++++",
"oooo....                ++++OOOO        $$$$XX..;;;;        ++++",
"1111++++....                ++OO++++        ....Oo++    ....4444",
"1111++++....                ++OO++++        ....+o++    ....4444",
"1111++++....                +OOO++++        ....++++    ....4444",
"1111++++....                +OOO++++        ....++++    ....4444",
"88881111OOOOOOOOXXXXXXXX        ++OOOOOO    ....    ....44448888",
"88881111OOOOOOOOXXXXXXXX        O+OOOOOO    ....    ....44448888",
"88881111OOOOOOOOXX..XXXX        OOOOOOOO    ....    ....44448888",
"88881111OOOOOOOO....XXXX        OOOOOOOO    ....    ....44448888",
"8888888844442222OOOOOOOOOOOOOOOOOOOO++++++++OO+o++++111188888888",
"8888888844442222OOOOOOOOOOOOOOOOOOOO++++++++OO+o++++111188888888",
"8888888844443322OOOOOOOOOOOOOOOOooOO++++++++OO++++++111188888888",
"8888888844443333OOOOOOOOOOOOOOOOooOO++++++++OO++++++111488888888"
};
