/* XPM */
static char *_47beadc1e5441bcbd8d96a0c7992aa3SdYFiJ5YYnhEyF0U[] = {
/* columns rows colors chars-per-pixel */
"64 64 12 1 ",
"  c None",
". c #101010",
"X c #686868",
"o c #E00000",
"O c #805000",
"+ c #F84848",
"@ c #C08800",
"# c #E8A800",
"$ c #F0D000",
"% c #F8F068",
"& c gray69",
"* c #F8F8F8",
/* pixels */
"                                                                ",
"                                                                ",
"                                      ....                      ",
"                                      ....                      ",
"                ....                  ..XX..                    ",
"                ....                  ..XX..                    ",
"                ..XX....              ....XX..                  ",
"                ..XX....              ....XX..                  ",
"                ....XXXX..            ........                  ",
"                ....XXXX..            ........                  ",
"                  ....XXXX..          ..OO@@%%..                ",
"                  ....XXXX..          ..OO@@%%..                ",
"                  ............          OO%%%%..                ",
"                  ............          OO%%%%..                ",
"          OO      ......@@%%%%..        ..%%%%%%OO              ",
"          OO      ......@@%%%%..        ..%%%%%%OO              ",
"        ..**OO      ..@@$$%%%%%%..@@@@@@@@##$$%%OO              ",
"        ..**OO      ..@@$$%%%%%%..@@@@@@@@##$$%%OO              ",
"      ..$$%%**OO    ..$$$$$$%%%%OO##$$%%%%%%%%@@@@              ",
"      ..$$%%**OO    ..$$$$$$%%%%OO##$$%%%%%%%%@@@@              ",
"    ..$$$$$$%%**OO    ..$$$$$$%%%%%%%%%%%%%%%%%%%%..            ",
"    ..$$$$$$%%**OO    ..$$$$$$%%%%%%%%%%%%%%%%%%%%..            ",
"  ..$$$$$$$$$$%%**..    ..$$$$$$%%%%%%%%%%%%%%%%%%%%OO          ",
"  ..$$$$$$$$$$%%**..    ..$$$$$$%%%%%%%%%%%%%%%%%%%%OO          ",
"  ..##$$$$$$$$$$%%**..  ..@@%%%%%%%%%%%%%%%%%%%%%%%%@@          ",
"  ..##$$$$$$$$$$%%**..  ..@@%%%%%%%%%%%%%%%%%%%%%%%%@@          ",
"    ..##$$$$$$$$$$%%**..@@%%%%%%%%%%%%%%%%%%%%%%..**%%OO        ",
"    ..##$$$$$$$$$$%%**..@@%%%%%%%%%%%%%%%%%%%%%%..**%%OO        ",
"      ..@@$$$$$$$$$$%%..##%%%%%%%%%%..**%%%%%%%%OO..%%OO        ",
"      ..@@$$$$$$$$$$%%..##%%%%%%%%%%..**%%%%%%%%OO..%%OO        ",
"          ..$$$$$$$$....$$%%%%%%%%%%OO..%%%%%%%%%%%%%%..        ",
"          ..$$$$$$$$....$$%%%%%%%%%%OO..%%%%%%%%%%%%%%..        ",
"            ..$$$$..  ..$$$$%%%%oo++%%%%%%%%%%##%%%%@@          ",
"            ..$$$$..  ..$$$$%%%%oo++%%%%%%%%%%##%%%%@@          ",
"          ..$$$$..    ..$$$$%%%%oooo%%%%%%##@@%%##$$..          ",
"          ..$$$$..    ..$$$$%%%%oooo%%%%%%##@@%%##$$..          ",
"        ..$$$$$$$$..OO@@$$$$$$$$%%%%%%%%%%$$$$$$$$..            ",
"        ..$$$$$$$$..OO@@$$$$$$$$%%%%%%%%%%$$$$$$$$..            ",
"          ..$$$$$$$$..@@@@$$$$$$$$$$$$$$$$$$$$$$$$..            ",
"          ..$$$$$$$$..@@@@$$$$$$$$$$$$$$$$$$$$$$$$..            ",
"            ..$$@@....$$@@$$$$$$$$$$$$$$$$$$$$$$$$##OO          ",
"            ..$$@@....$$@@$$$$$$$$$$$$$$$$$$$$$$$$##OO          ",
"          ..@@@@..  ..$$$$$$$$@@$$$$OO$$$$$$$$$$OO$$OO          ",
"          ..@@@@..  ..$$$$$$$$@@$$$$OO$$$$$$$$$$OO$$OO          ",
"          ..@@..  ..@@$$$$$$$$@@$$$$##@@$$$$$$$$OO$$OO          ",
"          ..@@..  ..@@$$$$$$$$@@$$$$##@@$$$$$$$$OO$$OO          ",
"            ..@@....@@@@$$$$$$$$OO$$##@@$$$$$$$$$$OO@@          ",
"            ..@@....@@@@$$$$$$$$OO$$##@@$$$$$$$$$$OO@@          ",
"              ..@@..##@@$$$$$$$$$$OOOO##$$$$$$$$$$##OO          ",
"              ..@@..##@@$$$$$$$$$$OOOO##$$$$$$$$$$##OO          ",
"                ....####$$$$$$$$$$$$$$$$$$$$$$$$$$##OO          ",
"                ....####$$$$$$$$$$$$$$$$$$$$$$$$$$##OO          ",
"            &&&&&&..OO####$$$$$$$$$$$$$$$$$$$$$$##OO..&&&&      ",
"            &&&&&&..OO####$$$$$$$$$$$$$$$$$$$$$$##OO..&&&&      ",
"          &&&&&&&&&&..OO######$$$$$$############OOOO..&&&&&&    ",
"          &&&&&&&&&&..OO######$$$$$$############OOOO..&&&&&&    ",
"          &&&&&&&&&&&&....############..............&&&&&&&&    ",
"          &&&&&&&&&&&&....############..............&&&&&&&&    ",
"            &&&&&&&&&&&&&&OOOOOOOO....&&&&&&&&&&&&&&&&&&&&      ",
"            &&&&&&&&&&&&&&OOOOOOOO....&&&&&&&&&&&&&&&&&&&&      ",
"                &&&&&&&&&&&&......&&&&&&&&&&&&&&&&&&&&          ",
"                &&&&&&&&&&&&......&&&&&&&&&&&&&&&&&&&&          ",
"                      &&&&&&&&&&&&&&&&&&&&&&&&&&                ",
"                      &&&&&&&&&&&&&&&&&&&&&&&&&&                "
};
