/* XPM */
static char *_81ad920cb8f45efe5bb83ecf82b750fpTOv13fxl4Zw9RR3[] = {
/* columns rows colors chars-per-pixel */
"64 64 3 1 ",
"  c None",
". c black",
"X c #F8F8F8",
/* pixels */
"                                                                ",
"                                                                ",
"                                                                ",
"                                                                ",
"            ........................................            ",
"            ........................................            ",
"            ........................................            ",
"            ........................................            ",
"        ....XXXXXXXXXXXXXXXXXXXXXXXXXXXXXXXXXXXXXXXX....        ",
"        ....XXXXXXXXXXXXXXXXXXXXXXXXXXXXXXXXXXXXXXXX....        ",
"        ....XXXXXXXXXXXXXXXXXXXXXXXXXXXXXXXXXXXXXXXX....        ",
"        ....XXXXXXXXXXXXXXXXXXXXXXXXXXXXXXXXXXXXXXXX....        ",
"    ....XXXXXXXX................................XXXXXXXX....    ",
"    ....XXXXXXXX................................XXXXXXXX....    ",
"    ....XXXXXXXX................................XXXXXXXX....    ",
"    ....XXXXXXXX................................XXXXXXXX....    ",
"    ....XXXX........................................XXXX....    ",
"    ....XXXX........................................XXXX....    ",
"    ....XXXX........................................XXXX....    ",
"    ....XXXX........................................XXXX....    ",
"    ....XXXX........XXXXXXXXXXXXXXXXXXXXXXXX........XXXX....    ",
"    ....XXXX........XXXXXXXXXXXXXXXXXXXXXXXX........XXXX....    ",
"    ....XXXX........XXXXXXXXXXXXXXXXXXXXXXXX........XXXX....    ",
"    ....XXXX........XXXXXXXXXXXXXXXXXXXXXXXX........XXXX....    ",
"    ....XXXX....XXXXXXXXXXXXXXXXXXXXXXXXXXXXXXXX....XXXX....    ",
"    ....XXXX....XXXXXXXXXXXXXXXXXXXXXXXXXXXXXXXX....XXXX....    ",
"    ....XXXX....XXXXXXXXXXXXXXXXXXXXXXXXXXXXXXXX....XXXX....    ",
"    ....XXXX....XXXXXXXXXXXXXXXXXXXXXXXXXXXXXXXX....XXXX....    ",
"    ....XXXX....XXXXXXXXXXXXXXXXXXXXXXXXXXXXXXXX....XXXX....    ",
"    ....XXXX....XXXXXXXXXXXXXXXXXXXXXXXXXXXXXXXX....XXXX....    ",
"    ....XXXX....XXXXXXXXXXXXXXXXXXXXXXXXXXXXXXXX....XXXX....    ",
"    ....XXXX....XXXXXXXXXXXXXXXXXXXXXXXXXXXXXXXX....XXXX....    ",
"    ....XXXX....XXXXXXXXXXXXXXXXXXXXXXXXXXXXXXXX....XXXX....    ",
"    ....XXXX....XXXXXXXXXXXXXXXXXXXXXXXXXXXXXXXX....XXXX....    ",
"    ....XXXX....XXXXXXXXXXXXXXXXXXXXXXXXXXXXXXXX....XXXX....    ",
"    ....XXXX....XXXXXXXXXXXXXXXXXXXXXXXXXXXXXXXX....XXXX....    ",
"    ....XXXX....XXXXXXXXXXXXXXXXXXXXXXXXXXXXXXXX....XXXX....    ",
"    ....XXXX....XXXXXXXXXXXXXXXXXXXXXXXXXXXXXXXX....XXXX....    ",
"    ....XXXX....XXXXXXXXXXXXXXXXXXXXXXXXXXXXXXXX....XXXX....    ",
"    ....XXXX....XXXXXXXXXXXXXXXXXXXXXXXXXXXXXXXX....XXXX....    ",
"    ....XXXX....XXXXXXXXXXXXXXXXXXXXXXXXXXXXXXXX....XXXX....    ",
"    ....XXXX....XXXXXXXXXXXXXXXXXXXXXXXXXXXXXXXX....XXXX....    ",
"    ....XXXX....XXXXXXXXXXXXXXXXXXXXXXXXXXXXXXXX....XXXX....    ",
"    ....XXXX....XXXXXXXXXXXXXXXXXXXXXXXXXXXXXXXX....XXXX....    ",
"    ....XXXXXXXX................................XXXXXXXX....    ",
"    ....XXXXXXXX................................XXXXXXXX....    ",
"    ....XXXXXXXX................................XXXXXXXX....    ",
"    ....XXXXXXXX................................XXXXXXXX....    ",
"    ........XXXXXXXXXXXXXXXXXXXXXXXXXXXXXXXXXXXXXXXX........    ",
"    ........XXXXXXXXXXXXXXXXXXXXXXXXXXXXXXXXXXXXXXXX........    ",
"    ........XXXXXXXXXXXXXXXXXXXXXXXXXXXXXXXXXXXXXXXX........    ",
"    ........XXXXXXXXXXXXXXXXXXXXXXXXXXXXXXXXXXXXXXXX........    ",
"        ................................................        ",
"        ................................................        ",
"        ................................................        ",
"        ................................................        ",
"            ........................................            ",
"            ........................................            ",
"            ........................................            ",
"            ........................................            ",
"                                                                ",
"                                                                ",
"                                                                ",
"                                                                "
};
