/* XPM */
static char *_49cc8c25c964baaddd26c085ddeb5b4gv7mg1m0WuOuRtVb[] = {
/* columns rows colors chars-per-pixel */
"64 128 14 1 ",
"  c None",
". c black",
"X c #682828",
"o c #383878",
"O c #784040",
"+ c #C03838",
"@ c #F86848",
"# c #B89838",
"$ c #D89070",
"% c #F8D858",
"& c #70A0C0",
"* c #F8C090",
"= c #B0B0D0",
"- c #E8E8F8",
/* pixels */
"                                                                ",
"                                                                ",
"                                                                ",
"                                                                ",
"                                                                ",
"                                                                ",
"                                                                ",
"                                                                ",
"                                                                ",
"                                                                ",
"                                                                ",
"                                                                ",
"                                                                ",
"                                                                ",
"                                                                ",
"                                                                ",
"                                                                ",
"                                                                ",
"                                                                ",
"                                                                ",
"                                                                ",
"                                                                ",
"                                                                ",
"                                                                ",
"                                                                ",
"                                                                ",
"                                                                ",
"                                                                ",
"                                                                ",
"                                                                ",
"                                                                ",
"                                                                ",
"                                                                ",
"                                                                ",
"                                                                ",
"                                                                ",
"                                                                ",
"                                                                ",
"                                                                ",
"                                                                ",
"                                                                ",
"                                                                ",
"                                                                ",
"                                                                ",
"                                                                ",
"                                                                ",
"                                                                ",
"                                                                ",
"                                                                ",
"                                                                ",
"                                                                ",
"                                                                ",
"                XXXXXXXXXXXXXXXXXXXXXXXXXXXXXXXX                ",
"                XXXXXXXXXXXXXXXXXXXXXXXXXXXXXXXX                ",
"                XXXXXXXXXXXXXXXXXXXXXXXXXXXXXXXX                ",
"                XXXXXXXXXXXXXXXXXXXXXXXXXXXXXXXX                ",
"            XXXX++++@@@@@@@@@@@@@@@@@@@@@@@@++++XXXX            ",
"            XXXX++++@@@@@@@@@@@@@@@@@@@@@@@@++++XXXX            ",
"            XXXX++++@@@@@@@@@@@@@@@@@@@@@@@@++++XXXX            ",
"            XXXX++++@@@@@@@@@@@@@@@@@@@@@@@@++++XXXX            ",
"            XXXX@@@@@@@@@@@@@@@@@@@@@@@@@@@@@@@@++++XXXX        ",
"            XXXX@@@@@@@@@@@@@@@@@@@@@@@@@@@@@@@@++++XXXX        ",
"            XXXX@@@@@@@@@@@@@@@@@@@@@@@@@@@@@@@@++++XXXX        ",
"            XXXX@@@@@@@@@@@@@@@@@@@@@@@@@@@@@@@@++++XXXX        ",
"        XXXX++++@@@@@@@@@@@@@@@@@@@@@@@@@@@@@@@@----XXXXXXXX    ",
"        XXXX++++@@@@@@@@@@@@@@@@@@@@@@@@@@@@@@@@----XXXXXXXX    ",
"        XXXX++++@@@@@@@@@@@@@@@@@@@@@@@@@@@@@@@@----XXXXXXXX    ",
"        XXXX++++@@@@@@@@@@@@@@@@@@@@@@@@@@@@@@@@----XXXXXXXX    ",
"        XXXX++++++++@@@@@@@@@@@@@@@@@@@@@@@@++++----XXXX----....",
"        XXXX++++++++@@@@@@@@@@@@@@@@@@@@@@@@++++----XXXX----....",
"        XXXX++++++++@@@@@@@@@@@@@@@@@@@@@@@@++++----XXXX----....",
"        XXXX++++++++@@@@@@@@@@@@@@@@@@@@@@@@++++----XXXX----....",
"        XXXX++++++++++++++++++++++++++++++++++++====++++----....",
"        XXXX++++++++++++++++++++++++++++++++++++====++++----....",
"        XXXX++++++++++++++++++++++++++++++++++++====++++----....",
"        XXXX++++++++++++++++++++++++++++++++++++====++++----....",
"        ....XXXX++++++++++++++++++++++++++++++++++++====----....",
"        ....XXXX++++++++++++++++++++++++++++++++++++====----....",
"        ....XXXX++++++++++++++++++++++++++++++++++++====----....",
"        ....XXXX++++++++++++++++++++++++++++++++++++====----....",
"        ....OOOOXXXXXXXX++++++++++++++++++++============....    ",
"        ....OOOOXXXXXXXX++++++++++++++++++++============....    ",
"        ....OOOOXXXXXXXX++++++++++++++++++++============....    ",
"        ....OOOOXXXXXXXX++++++++++++++++++++============....    ",
"        ....OOOOOOOOOOOOXXXXXXXXXXXXXXXXXXXXXXXXooooOOOO        ",
"        ....OOOOOOOOOOOOXXXXXXXXXXXXXXXXXXXXXXXXooooOOOO        ",
"        ....OOOOOOOOOOOOXXXXXXXXXXXXXXXXXXXXXXXXooooOOOO        ",
"        ....OOOOOOOOOOOOXXXXXXXXXXXXXXXXXXXXXXXXooooOOOO        ",
"            ....OOOO$$$$****OOOO$$$$$$$$....$$$$$$$$OOOO        ",
"            ....OOOO$$$$****OOOO$$$$$$$$....$$$$$$$$OOOO        ",
"            ....OOOO$$$$****OOOO$$$$$$$$....$$$$$$$$OOOO        ",
"            ....OOOO$$$$****OOOO$$$$$$$$....$$$$$$$$OOOO        ",
"                ....$$$$****$$$$$$$$****OOOO****OOOO            ",
"                ....$$$$****$$$$$$$$****OOOO****OOOO            ",
"                ....$$$$****$$$$$$$$****OOOO****OOOO            ",
"                ....$$$$****$$$$$$$$****OOOO****OOOO            ",
"            ....####OOOOOOOO$$$$$$$$$$$$$$$$OOOO                ",
"            ....####OOOOOOOO$$$$$$$$$$$$$$$$OOOO                ",
"            ....####OOOOOOOO$$$$$$$$$$$$$$$$OOOO                ",
"            ....####OOOOOOOO$$$$$$$$$$$$$$$$OOOO                ",
"        ....%%%%%%%%####oooooooo....OOOOOOOOXXXX                ",
"        ....%%%%%%%%####oooooooo....OOOOOOOOXXXX                ",
"        ....%%%%%%%%####oooooooo....OOOOOOOOXXXX                ",
"        ....%%%%%%%%####oooooooo....OOOOOOOOXXXX                ",
"        ....OOOOOOOO********oooooooo++++++++XXXX                ",
"        ....OOOOOOOO********oooooooo++++++++XXXX                ",
"        ....OOOOOOOO********oooooooo++++++++XXXX                ",
"        ....OOOOOOOO********oooooooo++++++++XXXX                ",
"        ....####OOOO$$$$$$$$oooo....++++........                ",
"        ....####OOOO$$$$$$$$oooo....++++........                ",
"        ....####OOOO$$$$$$$$oooo....++++........                ",
"        ....####OOOO$$$$$$$$oooo....++++........                ",
"            ....OOOOOOOO........&&&&........oooo....            ",
"            ....OOOOOOOO........&&&&........oooo....            ",
"            ....OOOOOOOO........&&&&........oooo....            ",
"            ....OOOOOOOO........&&&&........oooo....            ",
"                ....................oooo++++........            ",
"                ....................oooo++++........            ",
"                ....................oooo++++........            ",
"                ....................oooo++++........            ",
"                                    ............                ",
"                                    ............                ",
"                                    ............                ",
"                                    ............                ",
"                                                                ",
"                                                                ",
"                                                                ",
"                                                                "
};
