/* XPM */
static char *cb49a28fa85e4827e6005df66eb96892UbnqeQyOzovZ3Yq8[] = {
/* columns rows colors chars-per-pixel */
"64 128 12 1 ",
"  c None",
". c black",
"X c #682828",
"o c #383878",
"O c #784040",
"+ c #C03838",
"@ c #A87840",
"# c #F86848",
"$ c #B89838",
"% c #D89070",
"& c #F8D858",
"* c #70A0C0",
/* pixels */
"                                                                ",
"                                                                ",
"                                                                ",
"                                                                ",
"                                                                ",
"                                                                ",
"                                                                ",
"                                                                ",
"                                                                ",
"                                                                ",
"                                                                ",
"                                                                ",
"                                                                ",
"                                                                ",
"                                                                ",
"                                                                ",
"                                                                ",
"                                                                ",
"                                                                ",
"                                                                ",
"                                                                ",
"                                                                ",
"                                                                ",
"                                                                ",
"                                                                ",
"                                                                ",
"                                                                ",
"                                                                ",
"                                                                ",
"                                                                ",
"                                                                ",
"                                                                ",
"                                                                ",
"                                                                ",
"                                                                ",
"                                                                ",
"                                                                ",
"                                                                ",
"                                                                ",
"                                                                ",
"                                                                ",
"                                                                ",
"                                                                ",
"                                                                ",
"                                                                ",
"                                                                ",
"                                                                ",
"                                                                ",
"                                                                ",
"                                                                ",
"                                                                ",
"                                                                ",
"                XXXXXXXXXXXXXXXXXXXXXXXXXXXXXXXX                ",
"                XXXXXXXXXXXXXXXXXXXXXXXXXXXXXXXX                ",
"                XXXXXXXXXXXXXXXXXXXXXXXXXXXXXXXX                ",
"                XXXXXXXXXXXXXXXXXXXXXXXXXXXXXXXX                ",
"            XXXX++++########################++++XXXX            ",
"            XXXX++++########################++++XXXX            ",
"            XXXX++++########################++++XXXX            ",
"            XXXX++++########################++++XXXX            ",
"            XXXX################################XXXX            ",
"            XXXX################################XXXX            ",
"            XXXX################################XXXX            ",
"            XXXX################################XXXX            ",
"        XXXX++++################################++++XXXX        ",
"        XXXX++++################################++++XXXX        ",
"        XXXX++++################################++++XXXX        ",
"        XXXX++++################################++++XXXX        ",
"        XXXX++++++++########################++++++++XXXX        ",
"        XXXX++++++++########################++++++++XXXX        ",
"        XXXX++++++++########################++++++++XXXX        ",
"        XXXX++++++++########################++++++++XXXX        ",
"        ....++++++++++++++++++++++++++++++++++++++++....        ",
"        ....++++++++++++++++++++++++++++++++++++++++....        ",
"        ....++++++++++++++++++++++++++++++++++++++++....        ",
"        ....++++++++++++++++++++++++++++++++++++++++....        ",
"        ....XXXX++++++++++++++++++++++++++++++++XXXX....        ",
"        ....XXXX++++++++++++++++++++++++++++++++XXXX....        ",
"        ....XXXX++++++++++++++++++++++++++++++++XXXX....        ",
"        ....XXXX++++++++++++++++++++++++++++++++XXXX....        ",
"    ....@@@@OOOOXXXX++++++++........++++++++XXXXOOOO@@@@....    ",
"    ....@@@@OOOOXXXX++++++++........++++++++XXXXOOOO@@@@....    ",
"    ....@@@@OOOOXXXX++++++++........++++++++XXXXOOOO@@@@....    ",
"    ....@@@@OOOOXXXX++++++++........++++++++XXXXOOOO@@@@....    ",
"    ....%%%%....OOOOXXXXXXXXXXXXXXXXXXXXXXXXOOOO....%%%%....    ",
"    ....%%%%....OOOOXXXXXXXXXXXXXXXXXXXXXXXXOOOO....%%%%....    ",
"    ....%%%%....OOOOXXXXXXXXXXXXXXXXXXXXXXXXOOOO....%%%%....    ",
"    ....%%%%....OOOOXXXXXXXXXXXXXXXXXXXXXXXXOOOO....%%%%....    ",
"        ........OOOOOOOO@@@@OOOOOOOO@@@@OOOOOOOO........OOOO    ",
"        ........OOOOOOOO@@@@OOOOOOOO@@@@OOOOOOOO........OOOO    ",
"        ........OOOOOOOO@@@@OOOOOOOO@@@@OOOOOOOO........OOOO    ",
"        ........OOOOOOOO@@@@OOOOOOOO@@@@OOOOOOOO........OOOO    ",
"            OOOO........OOOOOOOOOOOOOOOO........oooo%%%%OOOO    ",
"            OOOO........OOOOOOOOOOOOOOOO........oooo%%%%OOOO    ",
"            OOOO........OOOOOOOOOOOOOOOO........oooo%%%%OOOO    ",
"            OOOO........OOOOOOOOOOOOOOOO........oooo%%%%OOOO    ",
"            ....ooooOOOO................OOOOOOOOooooooooOOOO    ",
"            ....ooooOOOO................OOOOOOOOooooooooOOOO    ",
"            ....ooooOOOO................OOOOOOOOooooooooOOOO    ",
"            ....ooooOOOO................OOOOOOOOooooooooOOOO    ",
"        ....ooooOOOO$$$$++++++++++++++++$$$$++++oooo....        ",
"        ....ooooOOOO$$$$++++++++++++++++$$$$++++oooo....        ",
"        ....ooooOOOO$$$$++++++++++++++++$$$$++++oooo....        ",
"        ....ooooOOOO$$$$++++++++++++++++$$$$++++oooo....        ",
"    ....%%%%oooo++++OOOO&&&&&&&&&&&&&&&&OOOO++++OOOO            ",
"    ....%%%%oooo++++OOOO&&&&&&&&&&&&&&&&OOOO++++OOOO            ",
"    ....%%%%oooo++++OOOO&&&&&&&&&&&&&&&&OOOO++++OOOO            ",
"    ....%%%%oooo++++OOOO&&&&&&&&&&&&&&&&OOOO++++OOOO            ",
"    ....%%%%%%%%++++$$$$&&&&&&&&&&&&&&&&$$$$++++....            ",
"    ....%%%%%%%%++++$$$$&&&&&&&&&&&&&&&&$$$$++++....            ",
"    ....%%%%%%%%++++$$$$&&&&&&&&&&&&&&&&$$$$++++....            ",
"    ....%%%%%%%%++++$$$$&&&&&&&&&&&&&&&&$$$$++++....            ",
"        ........oooo$$$$$$$$&&&&&&&&$$$$$$$$oooo....            ",
"        ........oooo$$$$$$$$&&&&&&&&$$$$$$$$oooo....            ",
"        ........oooo$$$$$$$$&&&&&&&&$$$$$$$$oooo....            ",
"        ........oooo$$$$$$$$&&&&&&&&$$$$$$$$oooo....            ",
"                ........$$$$OOOOOOOO$$$$oooooooo                ",
"                ........$$$$OOOOOOOO$$$$oooooooo                ",
"                ........$$$$OOOOOOOO$$$$oooooooo                ",
"                ........$$$$OOOOOOOO$$$$oooooooo                ",
"                        ............********....                ",
"                        ............********....                ",
"                        ............********....                ",
"                        ............********....                ",
"                                    ........                    ",
"                                    ........                    ",
"                                    ........                    ",
"                                    ........                    "
};
