/* XPM */
static char *d2ea00a01080468ef67a3f3974c902e5Ut0iEXRhNJKKxkeb[] = {
/* columns rows colors chars-per-pixel */
"64 128 15 1 ",
"  c None",
". c black",
"X c #682828",
"o c #383878",
"O c #784040",
"+ c #C03838",
"@ c #A87840",
"# c #F86848",
"$ c #B89838",
"% c #D89070",
"& c #F8D858",
"* c #70A0C0",
"= c #F8C090",
"- c #B0B0D0",
"; c #E8E8F8",
/* pixels */
"                                                                ",
"                                                                ",
"                                                                ",
"                                                                ",
"                                                                ",
"                                                                ",
"                                                                ",
"                                                                ",
"                                                                ",
"                                                                ",
"                                                                ",
"                                                                ",
"                                                                ",
"                                                                ",
"                                                                ",
"                                                                ",
"                                                                ",
"                                                                ",
"                                                                ",
"                                                                ",
"                                                                ",
"                                                                ",
"                                                                ",
"                                                                ",
"                                                                ",
"                                                                ",
"                                                                ",
"                                                                ",
"                                                                ",
"                                                                ",
"                                                                ",
"                                                                ",
"                                                                ",
"                                                                ",
"                                                                ",
"                                                                ",
"                                                                ",
"                                                                ",
"                                                                ",
"                                                                ",
"                                                                ",
"                                                                ",
"                                                                ",
"                                                                ",
"                                                                ",
"                                                                ",
"                                                                ",
"                                                                ",
"                XXXXXXXXXXXXXXXXXXXXXXXXXXXXXXXX                ",
"                XXXXXXXXXXXXXXXXXXXXXXXXXXXXXXXX                ",
"                XXXXXXXXXXXXXXXXXXXXXXXXXXXXXXXX                ",
"                XXXXXXXXXXXXXXXXXXXXXXXXXXXXXXXX                ",
"            XXXX++++########################++++XXXX            ",
"            XXXX++++########################++++XXXX            ",
"            XXXX++++########################++++XXXX            ",
"            XXXX++++########################++++XXXX            ",
"            XXXX################################++++XXXX        ",
"            XXXX################################++++XXXX        ",
"            XXXX################################++++XXXX        ",
"            XXXX################################++++XXXX        ",
"        XXXX++++################################;;;;XXXXXXXX    ",
"        XXXX++++################################;;;;XXXXXXXX    ",
"        XXXX++++################################;;;;XXXXXXXX    ",
"        XXXX++++################################;;;;XXXXXXXX    ",
"        XXXX++++++++########################++++;;;;XXXX;;;;....",
"        XXXX++++++++########################++++;;;;XXXX;;;;....",
"        XXXX++++++++########################++++;;;;XXXX;;;;....",
"        XXXX++++++++########################++++;;;;XXXX;;;;....",
"        XXXX++++++++++++++++++++++++++++++++++++----++++;;;;....",
"        XXXX++++++++++++++++++++++++++++++++++++----++++;;;;....",
"        XXXX++++++++++++++++++++++++++++++++++++----++++;;;;....",
"        XXXX++++++++++++++++++++++++++++++++++++----++++;;;;....",
"        ....XXXX++++++++++++++++++++++++++++++++++++----;;;;....",
"        ....XXXX++++++++++++++++++++++++++++++++++++----;;;;....",
"        ....XXXX++++++++++++++++++++++++++++++++++++----;;;;....",
"        ....XXXX++++++++++++++++++++++++++++++++++++----;;;;....",
"        ....OOOOXXXXXXXX++++++++++++++++++++------------....    ",
"        ....OOOOXXXXXXXX++++++++++++++++++++------------....    ",
"        ....OOOOXXXXXXXX++++++++++++++++++++------------....    ",
"        ....OOOOXXXXXXXX++++++++++++++++++++------------....    ",
"        ....OOOOOOOOOOOOXXXXXXXXXXXXXXXXXXXXXXXXooooOOOO        ",
"        ....OOOOOOOOOOOOXXXXXXXXXXXXXXXXXXXXXXXXooooOOOO        ",
"        ....OOOOOOOOOOOOXXXXXXXXXXXXXXXXXXXXXXXXooooOOOO        ",
"        ....OOOOOOOOOOOOXXXXXXXXXXXXXXXXXXXXXXXXooooOOOO        ",
"            ....OOOO%%%%====@@@@%%%%%%%%....%%%%%%%%OOOO        ",
"            ....OOOO%%%%====@@@@%%%%%%%%....%%%%%%%%OOOO        ",
"            ....OOOO%%%%====@@@@%%%%%%%%....%%%%%%%%OOOO        ",
"            ....OOOO%%%%====@@@@%%%%%%%%....%%%%%%%%OOOO        ",
"                ....%%%%====%%%%%%%%====OOOO====OOOO            ",
"                ....%%%%====%%%%%%%%====OOOO====OOOO            ",
"                ....%%%%====%%%%%%%%====OOOO====OOOO            ",
"                ....%%%%====%%%%%%%%====OOOO====OOOO            ",
"            ....$$$$OOOOOOOO%%%%%%%%%%%%%%%%OOOO                ",
"            ....$$$$OOOOOOOO%%%%%%%%%%%%%%%%OOOO                ",
"            ....$$$$OOOOOOOO%%%%%%%%%%%%%%%%OOOO                ",
"            ....$$$$OOOOOOOO%%%%%%%%%%%%%%%%OOOO                ",
"        ....&&&&&&&&$$$$XXXX........OOOOOOOOXXXX                ",
"        ....&&&&&&&&$$$$XXXX........OOOOOOOOXXXX                ",
"        ....&&&&&&&&$$$$XXXX........OOOOOOOOXXXX                ",
"        ....&&&&&&&&$$$$XXXX........OOOOOOOOXXXX                ",
"        ....OOOO&&&&$$$$....oooooooo....++++XXXX                ",
"        ....OOOO&&&&$$$$....oooooooo....++++XXXX                ",
"        ....OOOO&&&&$$$$....oooooooo....++++XXXX                ",
"        ....OOOO&&&&$$$$....oooooooo....++++XXXX                ",
"        ....$$$$OOOOXXXX....ooooooooXXXX++++....                ",
"        ....$$$$OOOOXXXX....ooooooooXXXX++++....                ",
"        ....$$$$OOOOXXXX....ooooooooXXXX++++....                ",
"        ....$$$$OOOOXXXX....ooooooooXXXX++++....                ",
"            ....$$$$........%%%%%%%%........                    ",
"            ....$$$$........%%%%%%%%........                    ",
"            ....$$$$........%%%%%%%%........                    ",
"            ....$$$$........%%%%%%%%........                    ",
"                ........****OOOOOOOO****....                    ",
"                ........****OOOOOOOO****....                    ",
"                ........****OOOOOOOO****....                    ",
"                ........****OOOOOOOO****....                    ",
"                        ....oooo++++oooo....                    ",
"                        ....oooo++++oooo....                    ",
"                        ....oooo++++oooo....                    ",
"                        ....oooo++++oooo....                    ",
"                            ............                        ",
"                            ............                        ",
"                            ............                        ",
"                            ............                        ",
"                                                                ",
"                                                                ",
"                                                                ",
"                                                                "
};
