/* XPM */
static char *c42b27c194f04232d095976b2c063741CVUR8dl4MrBI5r7X[] = {
/* columns rows colors chars-per-pixel */
"64 128 13 1 ",
"  c None",
". c black",
"X c #682828",
"o c #383878",
"O c #784040",
"+ c #C03838",
"@ c #A87840",
"# c #F86848",
"$ c #B89838",
"% c #D89070",
"& c #F8D858",
"* c #70A0C0",
"= c #F8C090",
/* pixels */
"                                                                ",
"                                                                ",
"                                                                ",
"                                                                ",
"                                                                ",
"                                                                ",
"                                                                ",
"                                                                ",
"                                                                ",
"                                                                ",
"                                                                ",
"                                                                ",
"                                                                ",
"                                                                ",
"                                                                ",
"                                                                ",
"                                                                ",
"                                                                ",
"                                                                ",
"                                                                ",
"                                                                ",
"                                                                ",
"                                                                ",
"                                                                ",
"                                                                ",
"                                                                ",
"                                                                ",
"                                                                ",
"                                                                ",
"                                                                ",
"                                                                ",
"                                                                ",
"                                                                ",
"                                                                ",
"                                                                ",
"                                                                ",
"                                                                ",
"                                                                ",
"                                                                ",
"                                                                ",
"                                                                ",
"                                                                ",
"                                                                ",
"                                                                ",
"                                                                ",
"                                                                ",
"                                                                ",
"                                                                ",
"                XXXXXXXXXXXXXXXXXXXXXXXXXXXXXXXX                ",
"                XXXXXXXXXXXXXXXXXXXXXXXXXXXXXXXX                ",
"                XXXXXXXXXXXXXXXXXXXXXXXXXXXXXXXX                ",
"                XXXXXXXXXXXXXXXXXXXXXXXXXXXXXXXX                ",
"            XXXX++++########################++++XXXX            ",
"            XXXX++++########################++++XXXX            ",
"            XXXX++++########################++++XXXX            ",
"            XXXX++++########################++++XXXX            ",
"            XXXX################################XXXX            ",
"            XXXX################################XXXX            ",
"            XXXX################################XXXX            ",
"            XXXX################################XXXX            ",
"        XXXX++++################################++++XXXX        ",
"        XXXX++++################################++++XXXX        ",
"        XXXX++++################################++++XXXX        ",
"        XXXX++++################################++++XXXX        ",
"        XXXX++++++++########################++++++++XXXX        ",
"        XXXX++++++++########################++++++++XXXX        ",
"        XXXX++++++++########################++++++++XXXX        ",
"        XXXX++++++++########################++++++++XXXX        ",
"        ....++++++++++++++++++++++++++++++++++++++++....        ",
"        ....++++++++++++++++++++++++++++++++++++++++....        ",
"        ....++++++++++++++++++++++++++++++++++++++++....        ",
"        ....++++++++++++++++++++++++++++++++++++++++....        ",
"        ....XXXX++++++++++++++++++++++++++++++++XXXX....        ",
"        ....XXXX++++++++++++++++++++++++++++++++XXXX....        ",
"        ....XXXX++++++++++++++++++++++++++++++++XXXX....        ",
"        ....XXXX++++++++++++++++++++++++++++++++XXXX....        ",
"    ....@@@@OOOOXXXX++++++++........++++++++XXXXOOOO@@@@....    ",
"    ....@@@@OOOOXXXX++++++++........++++++++XXXXOOOO@@@@....    ",
"    ....@@@@OOOOXXXX++++++++........++++++++XXXXOOOO@@@@....    ",
"    ....@@@@OOOOXXXX++++++++........++++++++XXXXOOOO@@@@....    ",
"    ....%%%%....OOOOXXXXXXXXXXXXXXXXXXXXXXXXOOOO....%%%%....    ",
"    ....%%%%....OOOOXXXXXXXXXXXXXXXXXXXXXXXXOOOO....%%%%....    ",
"    ....%%%%....OOOOXXXXXXXXXXXXXXXXXXXXXXXXOOOO....%%%%....    ",
"    ....%%%%....OOOOXXXXXXXXXXXXXXXXXXXXXXXXOOOO....%%%%....    ",
"        ........OOOOOOOO@@@@OOOOOOOO@@@@OOOOOOOO........        ",
"        ........OOOOOOOO@@@@OOOOOOOO@@@@OOOOOOOO........        ",
"        ........OOOOOOOO@@@@OOOOOOOO@@@@OOOOOOOO........        ",
"        ........OOOOOOOO@@@@OOOOOOOO@@@@OOOOOOOO........        ",
"            ............OOOOOOOOOOOOOOOO............            ",
"            ............OOOOOOOOOOOOOOOO............            ",
"            ............OOOOOOOOOOOOOOOO............            ",
"            ............OOOOOOOOOOOOOOOO............            ",
"        ....ooooOOOO$$$$................$$$$OOOO........        ",
"        ....ooooOOOO$$$$................$$$$OOOO........        ",
"        ....ooooOOOO$$$$................$$$$OOOO........        ",
"        ....ooooOOOO$$$$................$$$$OOOO........        ",
"    OOOO====oooo++++$$$$++++++++++++++++$$$$++++oooo====OOOO    ",
"    OOOO====oooo++++$$$$++++++++++++++++$$$$++++oooo====OOOO    ",
"    OOOO====oooo++++$$$$++++++++++++++++$$$$++++oooo====OOOO    ",
"    OOOO====oooo++++$$$$++++++++++++++++$$$$++++oooo====OOOO    ",
"    OOOO%%%%OOOO++++OOOO&&&&&&&&&&&&&&&&OOOO++++OOOO%%%%OOOO    ",
"    OOOO%%%%OOOO++++OOOO&&&&&&&&&&&&&&&&OOOO++++OOOO%%%%OOOO    ",
"    OOOO%%%%OOOO++++OOOO&&&&&&&&&&&&&&&&OOOO++++OOOO%%%%OOOO    ",
"    OOOO%%%%OOOO++++OOOO&&&&&&&&&&&&&&&&OOOO++++OOOO%%%%OOOO    ",
"        OOOO........$$$$&&&&&&&&&&&&&&&&$$$$........OOOO        ",
"        OOOO........$$$$&&&&&&&&&&&&&&&&$$$$........OOOO        ",
"        OOOO........$$$$&&&&&&&&&&&&&&&&$$$$........OOOO        ",
"        OOOO........$$$$&&&&&&&&&&&&&&&&$$$$........OOOO        ",
"            oooo****$$$$$$$$$$$$$$$$$$$$$$$$****oooo            ",
"            oooo****$$$$$$$$$$$$$$$$$$$$$$$$****oooo            ",
"            oooo****$$$$$$$$$$$$$$$$$$$$$$$$****oooo            ",
"            oooo****$$$$$$$$$$$$$$$$$$$$$$$$****oooo            ",
"            ........****$$$$OOOOOOOO$$$$****........            ",
"            ........****$$$$OOOOOOOO$$$$****........            ",
"            ........****$$$$OOOOOOOO$$$$****........            ",
"            ........****$$$$OOOOOOOO$$$$****........            ",
"            ....oooooooo................oooooooo....            ",
"            ....oooooooo................oooooooo....            ",
"            ....oooooooo................oooooooo....            ",
"            ....oooooooo................oooooooo....            ",
"                ........                ........                ",
"                ........                ........                ",
"                ........                ........                ",
"                ........                ........                ",
"                                                                ",
"                                                                ",
"                                                                ",
"                                                                "
};
