/* XPM */
static char *ce7fcc87afae4acfd6cd150c1a66926fwkQmvFaLk8UlicrE[] = {
/* columns rows colors chars-per-pixel */
"64 128 12 1 ",
"  c None",
". c black",
"X c #682828",
"o c #383878",
"O c #784040",
"+ c #C03838",
"@ c #A87840",
"# c #F86848",
"$ c #B89838",
"% c #D89070",
"& c #F8D858",
"* c #70A0C0",
/* pixels */
"                                                                ",
"                                                                ",
"                                                                ",
"                                                                ",
"                                                                ",
"                                                                ",
"                                                                ",
"                                                                ",
"                                                                ",
"                                                                ",
"                                                                ",
"                                                                ",
"                                                                ",
"                                                                ",
"                                                                ",
"                                                                ",
"                                                                ",
"                                                                ",
"                                                                ",
"                                                                ",
"                                                                ",
"                                                                ",
"                                                                ",
"                                                                ",
"                                                                ",
"                                                                ",
"                                                                ",
"                                                                ",
"                                                                ",
"                                                                ",
"                                                                ",
"                                                                ",
"                                                                ",
"                                                                ",
"                                                                ",
"                                                                ",
"                                                                ",
"                                                                ",
"                                                                ",
"                                                                ",
"                                                                ",
"                                                                ",
"                                                                ",
"                                                                ",
"                                                                ",
"                                                                ",
"                                                                ",
"                                                                ",
"                                                                ",
"                                                                ",
"                                                                ",
"                                                                ",
"                XXXXXXXXXXXXXXXXXXXXXXXXXXXXXXXX                ",
"                XXXXXXXXXXXXXXXXXXXXXXXXXXXXXXXX                ",
"                XXXXXXXXXXXXXXXXXXXXXXXXXXXXXXXX                ",
"                XXXXXXXXXXXXXXXXXXXXXXXXXXXXXXXX                ",
"            XXXX++++########################++++XXXX            ",
"            XXXX++++########################++++XXXX            ",
"            XXXX++++########################++++XXXX            ",
"            XXXX++++########################++++XXXX            ",
"            XXXX################################XXXX            ",
"            XXXX################################XXXX            ",
"            XXXX################################XXXX            ",
"            XXXX################################XXXX            ",
"        XXXX++++################################++++XXXX        ",
"        XXXX++++################################++++XXXX        ",
"        XXXX++++################################++++XXXX        ",
"        XXXX++++################################++++XXXX        ",
"        XXXX++++++++########################++++++++XXXX        ",
"        XXXX++++++++########################++++++++XXXX        ",
"        XXXX++++++++########################++++++++XXXX        ",
"        XXXX++++++++########################++++++++XXXX        ",
"        ....++++++++++++++++++++++++++++++++++++++++....        ",
"        ....++++++++++++++++++++++++++++++++++++++++....        ",
"        ....++++++++++++++++++++++++++++++++++++++++....        ",
"        ....++++++++++++++++++++++++++++++++++++++++....        ",
"        ....XXXX++++++++++++++++++++++++++++++++XXXX....        ",
"        ....XXXX++++++++++++++++++++++++++++++++XXXX....        ",
"        ....XXXX++++++++++++++++++++++++++++++++XXXX....        ",
"        ....XXXX++++++++++++++++++++++++++++++++XXXX....        ",
"    ....@@@@OOOOXXXX++++++++........++++++++XXXXOOOO@@@@....    ",
"    ....@@@@OOOOXXXX++++++++........++++++++XXXXOOOO@@@@....    ",
"    ....@@@@OOOOXXXX++++++++........++++++++XXXXOOOO@@@@....    ",
"    ....@@@@OOOOXXXX++++++++........++++++++XXXXOOOO@@@@....    ",
"    ....%%%%....OOOOXXXXXXXXXXXXXXXXXXXXXXXXOOOO....%%%%....    ",
"    ....%%%%....OOOOXXXXXXXXXXXXXXXXXXXXXXXXOOOO....%%%%....    ",
"    ....%%%%....OOOOXXXXXXXXXXXXXXXXXXXXXXXXOOOO....%%%%....    ",
"    ....%%%%....OOOOXXXXXXXXXXXXXXXXXXXXXXXXOOOO....%%%%....    ",
"    OOOO........OOOOOOOO@@@@OOOOOOOO@@@@OOOOOOOO........        ",
"    OOOO........OOOOOOOO@@@@OOOOOOOO@@@@OOOOOOOO........        ",
"    OOOO........OOOOOOOO@@@@OOOOOOOO@@@@OOOOOOOO........        ",
"    OOOO........OOOOOOOO@@@@OOOOOOOO@@@@OOOOOOOO........        ",
"    OOOO%%%%oooo........OOOOOOOOOOOOOOOO........OOOO            ",
"    OOOO%%%%oooo........OOOOOOOOOOOOOOOO........OOOO            ",
"    OOOO%%%%oooo........OOOOOOOOOOOOOOOO........OOOO            ",
"    OOOO%%%%oooo........OOOOOOOOOOOOOOOO........OOOO            ",
"    OOOOooooooooOOOOOOOO................OOOOoooo....            ",
"    OOOOooooooooOOOOOOOO................OOOOoooo....            ",
"    OOOOooooooooOOOOOOOO................OOOOoooo....            ",
"    OOOOooooooooOOOOOOOO................OOOOoooo....            ",
"        ....oooo++++$$$$++++++++++++++++$$$$OOOOoooo....        ",
"        ....oooo++++$$$$++++++++++++++++$$$$OOOOoooo....        ",
"        ....oooo++++$$$$++++++++++++++++$$$$OOOOoooo....        ",
"        ....oooo++++$$$$++++++++++++++++$$$$OOOOoooo....        ",
"            OOOO++++OOOO&&&&&&&&&&&&&&&&OOOO++++oooo%%%%....    ",
"            OOOO++++OOOO&&&&&&&&&&&&&&&&OOOO++++oooo%%%%....    ",
"            OOOO++++OOOO&&&&&&&&&&&&&&&&OOOO++++oooo%%%%....    ",
"            OOOO++++OOOO&&&&&&&&&&&&&&&&OOOO++++oooo%%%%....    ",
"            ....++++$$$$&&&&&&&&&&&&&&&&$$$$++++%%%%%%%%....    ",
"            ....++++$$$$&&&&&&&&&&&&&&&&$$$$++++%%%%%%%%....    ",
"            ....++++$$$$&&&&&&&&&&&&&&&&$$$$++++%%%%%%%%....    ",
"            ....++++$$$$&&&&&&&&&&&&&&&&$$$$++++%%%%%%%%....    ",
"            ....oooo$$$$$$$$&&&&&&&&$$$$$$$$oooo........        ",
"            ....oooo$$$$$$$$&&&&&&&&$$$$$$$$oooo........        ",
"            ....oooo$$$$$$$$&&&&&&&&$$$$$$$$oooo........        ",
"            ....oooo$$$$$$$$&&&&&&&&$$$$$$$$oooo........        ",
"                oooooooo$$$$OOOOOOOO$$$$........                ",
"                oooooooo$$$$OOOOOOOO$$$$........                ",
"                oooooooo$$$$OOOOOOOO$$$$........                ",
"                oooooooo$$$$OOOOOOOO$$$$........                ",
"                ....********............                        ",
"                ....********............                        ",
"                ....********............                        ",
"                ....********............                        ",
"                    ........                                    ",
"                    ........                                    ",
"                    ........                                    ",
"                    ........                                    "
};
