/* XPM */
static char *_b3194ae4dfd4a5cee28af01d75693bbjObL4jA5f52EDUZn[] = {
/* columns rows colors chars-per-pixel */
"64 64 4 1 ",
"  c None",
". c #000001",
"X c #F83808",
"o c #F89850",
/* pixels */
"                                                                ",
"                                                                ",
"                                                                ",
"                                                                ",
"                                                                ",
"                                                                ",
"                                                                ",
"                                                                ",
"                        ................                        ",
"                        ................                        ",
"                        ................                        ",
"                        ................                        ",
"                ........XXXXXXXXXXXXXXXX........                ",
"                ........XXXXXXXXXXXXXXXX........                ",
"                ........XXXXXXXXXXXXXXXX........                ",
"                ........XXXXXXXXXXXXXXXX........                ",
"            ....XXXXXXXXXXXXooooooooXXXXXXXXXXXX....            ",
"            ....XXXXXXXXXXXXooooooooXXXXXXXXXXXX....            ",
"            ....XXXXXXXXXXXXooooooooXXXXXXXXXXXX....            ",
"            ....XXXXXXXXXXXXooooooooXXXXXXXXXXXX....            ",
"            ....XXXXXXXXXXXXooooooooXXXXXXXXXXXX....            ",
"            ....XXXXXXXXXXXXooooooooXXXXXXXXXXXX....            ",
"            ....XXXXXXXXXXXXooooooooXXXXXXXXXXXX....            ",
"            ....XXXXXXXXXXXXooooooooXXXXXXXXXXXX....            ",
"        ....XXXXXXXXXXXXXXXXXXXXXXXXXXXXXXXXXXXXXXXX....        ",
"        ....XXXXXXXXXXXXXXXXXXXXXXXXXXXXXXXXXXXXXXXX....        ",
"        ....XXXXXXXXXXXXXXXXXXXXXXXXXXXXXXXXXXXXXXXX....        ",
"        ....XXXXXXXXXXXXXXXXXXXXXXXXXXXXXXXXXXXXXXXX....        ",
"        ....XXXXXXXXXXXXXXXXXXXXXXXXXXXXXXXXXXXXXXXX....        ",
"        ....XXXXXXXXXXXXXXXXXXXXXXXXXXXXXXXXXXXXXXXX....        ",
"        ....XXXXXXXXXXXXXXXXXXXXXXXXXXXXXXXXXXXXXXXX....        ",
"        ....XXXXXXXXXXXXXXXXXXXXXXXXXXXXXXXXXXXXXXXX....        ",
"        ....ooooooooXXXXXXXXXXXXXXXXXXXXXXXXoooooooo....        ",
"        ....ooooooooXXXXXXXXXXXXXXXXXXXXXXXXoooooooo....        ",
"        ....ooooooooXXXXXXXXXXXXXXXXXXXXXXXXoooooooo....        ",
"        ....ooooooooXXXXXXXXXXXXXXXXXXXXXXXXoooooooo....        ",
"        ....oooooooooooooooooooooooooooooooooooooooo....        ",
"        ....oooooooooooooooooooooooooooooooooooooooo....        ",
"        ....oooooooooooooooooooooooooooooooooooooooo....        ",
"        ....oooooooooooooooooooooooooooooooooooooooo....        ",
"            ....oooooooooooooooooooooooooooooooo....            ",
"            ....oooooooooooooooooooooooooooooooo....            ",
"            ....oooooooooooooooooooooooooooooooo....            ",
"            ....oooooooooooooooooooooooooooooooo....            ",
"            ....oooooooooooooooooooooooooooooooo....            ",
"            ....oooooooooooooooooooooooooooooooo....            ",
"            ....oooooooooooooooooooooooooooooooo....            ",
"            ....oooooooooooooooooooooooooooooooo....            ",
"                ........oooooooooooooooo........                ",
"                ........oooooooooooooooo........                ",
"                ........oooooooooooooooo........                ",
"                ........oooooooooooooooo........                ",
"                        ................                        ",
"                        ................                        ",
"                        ................                        ",
"                        ................                        ",
"                                                                ",
"                                                                ",
"                                                                ",
"                                                                ",
"                                                                ",
"                                                                ",
"                                                                ",
"                                                                "
};
