/* XPM */
static char *_4157d61e6844cc68ee75cf5850c25d9YzvPzkpSUKLaLnm3[] = {
/* columns rows colors chars-per-pixel */
"64 128 9 1 ",
"  c None",
". c black",
"X c #383818",
"o c #484858",
"O c #787040",
"+ c #D89870",
"@ c #889090",
"# c #F0C098",
"$ c #C0C8D8",
/* pixels */
"                                                                ",
"                                                                ",
"                                                                ",
"                                                                ",
"                                                                ",
"                                                                ",
"                                                                ",
"                                                                ",
"                                                                ",
"                                                                ",
"                                                                ",
"                                                                ",
"                                                                ",
"                                                                ",
"                                                                ",
"                                                                ",
"                                                                ",
"                                                                ",
"                                                                ",
"                                                                ",
"                                                                ",
"                                                                ",
"                                                                ",
"                                                                ",
"                                                                ",
"                                                                ",
"                                                                ",
"                                                                ",
"                                                                ",
"                                                                ",
"                                                                ",
"                                                                ",
"                                                                ",
"                                                                ",
"                                                                ",
"                                                                ",
"                                                                ",
"                                                                ",
"                                                                ",
"                                                                ",
"                                                                ",
"                                                                ",
"                                                                ",
"                                                                ",
"                        oooooooooooooooo                        ",
"                        oooooooooooooooo                        ",
"                        oooooooooooooooo                        ",
"                        oooooooooooooooo                        ",
"                XXXXXXXX@@@@@@@@@@@@@@@@XXXXXXXX                ",
"                XXXXXXXX@@@@@@@@@@@@@@@@XXXXXXXX                ",
"                XXXXXXXX@@@@@@@@@@@@@@@@XXXXXXXX                ",
"                XXXXXXXX@@@@@@@@@@@@@@@@XXXXXXXX                ",
"            XXXXoooo@@@@@@@@@@@@@@@@@@@@@@@@ooooXXXX            ",
"            XXXXoooo@@@@@@@@@@@@@@@@@@@@@@@@ooooXXXX            ",
"            XXXXoooo@@@@@@@@@@@@@@@@@@@@@@@@ooooXXXX            ",
"            XXXXoooo@@@@@@@@@@@@@@@@@@@@@@@@ooooXXXX            ",
"        ....oooooooo@@@@@@@@@@@@@@@@@@@@@@@@oooooooo....        ",
"        ....oooooooo@@@@@@@@@@@@@@@@@@@@@@@@oooooooo....        ",
"        ....oooooooo@@@@@@@@@@@@@@@@@@@@@@@@oooooooo....        ",
"        ....oooooooo@@@@@@@@@@@@@@@@@@@@@@@@oooooooo....        ",
"        ....oooooooooooo@@@@@@@@@@@@@@@@oooooooooooo....        ",
"        ....oooooooooooo@@@@@@@@@@@@@@@@oooooooooooo....        ",
"        ....oooooooooooo@@@@@@@@@@@@@@@@oooooooooooo....        ",
"        ....oooooooooooo@@@@@@@@@@@@@@@@oooooooooooo....        ",
"        ....oooooooooooooooooooooooooooooooooooooooo....        ",
"        ....oooooooooooooooooooooooooooooooooooooooo....        ",
"        ....oooooooooooooooooooooooooooooooooooooooo....        ",
"        ....oooooooooooooooooooooooooooooooooooooooo....        ",
"    ....++++....oooooooooooooooooooooooooooooooo....++++....    ",
"    ....++++....oooooooooooooooooooooooooooooooo....++++....    ",
"    ....++++....oooooooooooooooooooooooooooooooo....++++....    ",
"    ....++++....oooooooooooooooooooooooooooooooo....++++....    ",
"    ....####............oooooooooooooooo............####....    ",
"    ....####............oooooooooooooooo............####....    ",
"    ....####............oooooooooooooooo............####....    ",
"    ....####............oooooooooooooooo............####....    ",
"        ........XXXXOOOOXXXXXXXXXXXXXXXXOOOOXXXX........        ",
"        ........XXXXOOOOXXXXXXXXXXXXXXXXOOOOXXXX........        ",
"        ........XXXXOOOOXXXXXXXXXXXXXXXXOOOOXXXX........        ",
"        ........XXXXOOOOXXXXXXXXXXXXXXXXOOOOXXXX........        ",
"            ....XXXXXXXXOOOOOOOOOOOOOOOOXXXXXXXX....            ",
"            ....XXXXXXXXOOOOOOOOOOOOOOOOXXXXXXXX....            ",
"            ....XXXXXXXXOOOOOOOOOOOOOOOOXXXXXXXX....            ",
"            ....XXXXXXXXOOOOOOOOOOOOOOOOXXXXXXXX....            ",
"            ........XXXXXXXXXXXXXXXXXXXXXXXX........            ",
"            ........XXXXXXXXXXXXXXXXXXXXXXXX........            ",
"            ........XXXXXXXXXXXXXXXXXXXXXXXX........            ",
"            ........XXXXXXXXXXXXXXXXXXXXXXXX........            ",
"        ....@@@@oooo....XXXXXXXXXXXXXXXX....oooo@@@@....        ",
"        ....@@@@oooo....XXXXXXXXXXXXXXXX....oooo@@@@....        ",
"        ....@@@@oooo....XXXXXXXXXXXXXXXX....oooo@@@@....        ",
"        ....@@@@oooo....XXXXXXXXXXXXXXXX....oooo@@@@....        ",
"    ....oooo@@@@....@@@@................@@@@....@@@@oooo....    ",
"    ....oooo@@@@....@@@@................@@@@....@@@@oooo....    ",
"    ....oooo@@@@....@@@@................@@@@....@@@@oooo....    ",
"    ....oooo@@@@....@@@@................@@@@....@@@@oooo....    ",
"    oooo$$$$oooo....@@@@@@@@@@@@@@@@@@@@@@@@....oooo$$$$oooo    ",
"    oooo$$$$oooo....@@@@@@@@@@@@@@@@@@@@@@@@....oooo$$$$oooo    ",
"    oooo$$$$oooo....@@@@@@@@@@@@@@@@@@@@@@@@....oooo$$$$oooo    ",
"    oooo$$$$oooo....@@@@@@@@@@@@@@@@@@@@@@@@....oooo$$$$oooo    ",
"    oooo$$$$oooo....@@@@@@@@@@@@@@@@@@@@@@@@....oooo$$$$oooo    ",
"    oooo$$$$oooo....@@@@@@@@@@@@@@@@@@@@@@@@....oooo$$$$oooo    ",
"    oooo$$$$oooo....@@@@@@@@@@@@@@@@@@@@@@@@....oooo$$$$oooo    ",
"    oooo$$$$oooo....@@@@@@@@@@@@@@@@@@@@@@@@....oooo$$$$oooo    ",
"        ............oooo@@@@@@@@@@@@@@@@oooo............        ",
"        ............oooo@@@@@@@@@@@@@@@@oooo............        ",
"        ............oooo@@@@@@@@@@@@@@@@oooo............        ",
"        ............oooo@@@@@@@@@@@@@@@@oooo............        ",
"            XXXXoooo........oooooooo........ooooXXXX            ",
"            XXXXoooo........oooooooo........ooooXXXX            ",
"            XXXXoooo........oooooooo........ooooXXXX            ",
"            XXXXoooo........oooooooo........ooooXXXX            ",
"            ........oooooooo........oooooooo........            ",
"            ........oooooooo........oooooooo........            ",
"            ........oooooooo........oooooooo........            ",
"            ........oooooooo........oooooooo........            ",
"            ....$$$$$$$$....        ....$$$$$$$$....            ",
"            ....$$$$$$$$....        ....$$$$$$$$....            ",
"            ....$$$$$$$$....        ....$$$$$$$$....            ",
"            ....$$$$$$$$....        ....$$$$$$$$....            ",
"                ........                ........                ",
"                ........                ........                ",
"                ........                ........                ",
"                ........                ........                ",
"                                                                ",
"                                                                ",
"                                                                ",
"                                                                "
};
