/* XPM */
static char *a96d62cbe3094e23a88a4eb8c180f71159RQHJal81LeouBM[] = {
/* columns rows colors chars-per-pixel */
"64 128 13 1 ",
"  c None",
". c black",
"X c #383818",
"o c #501000",
"O c #484858",
"+ c #784040",
"@ c #904028",
"# c #E07050",
"$ c #D89870",
"% c #889090",
"& c #F0C098",
"* c #C0C8D8",
"= c #FFFDFD",
/* pixels */
"                                                                ",
"                                                                ",
"                                                                ",
"                                                                ",
"                                                                ",
"                                                                ",
"                                                                ",
"                                                                ",
"                                                                ",
"                                                                ",
"                                                                ",
"                                                                ",
"                                                                ",
"                                                                ",
"                                                                ",
"                                                                ",
"                                                                ",
"                                                                ",
"                                                                ",
"                                                                ",
"                                                                ",
"                                                                ",
"                                                                ",
"                                                                ",
"                                                                ",
"                                                                ",
"                                                                ",
"                                                                ",
"                                                                ",
"                                                                ",
"                                                                ",
"                                                                ",
"                                                                ",
"                                                                ",
"                                                                ",
"                                                                ",
"                                                                ",
"                                                                ",
"                                                                ",
"                                                                ",
"                                                                ",
"                                                                ",
"                                                                ",
"                                                                ",
"                            OOOOOOOOOOOOOOOO                    ",
"                            OOOOOOOOOOOOOOOO                    ",
"                            OOOOOOOOOOOOOOOO                    ",
"                            OOOOOOOOOOOOOOOO                    ",
"                    XXXXXXXX%%%%%%%%%%%%%%%%XXXXXXXX            ",
"                    XXXXXXXX%%%%%%%%%%%%%%%%XXXXXXXX            ",
"                    XXXXXXXX%%%%%%%%%%%%%%%%XXXXXXXX            ",
"                    XXXXXXXX%%%%%%%%%%%%%%%%XXXXXXXX            ",
"                XXXXOOOO%%%%%%%%%%%%%%%%%%%%%%%%OOOO....        ",
"                XXXXOOOO%%%%%%%%%%%%%%%%%%%%%%%%OOOO....        ",
"                XXXXOOOO%%%%%%%%%%%%%%%%%%%%%%%%OOOO....        ",
"                XXXXOOOO%%%%%%%%%%%%%%%%%%%%%%%%OOOO....        ",
"            ....OOOOOOOO%%%%%%%%%%%%%%%%%%%%%%%%OOOOXXXX        ",
"            ....OOOOOOOO%%%%%%%%%%%%%%%%%%%%%%%%OOOOXXXX        ",
"            ....OOOOOOOO%%%%%%%%%%%%%%%%%%%%%%%%OOOOXXXX        ",
"            ....OOOOOOOO%%%%%%%%%%%%%%%%%%%%%%%%OOOOXXXX        ",
"            ....OOOOOOOOOOOO%%%%%%%%%%%%%%%%OOOOOOOOOOOO....    ",
"            ....OOOOOOOOOOOO%%%%%%%%%%%%%%%%OOOOOOOOOOOO....    ",
"            ....OOOOOOOOOOOO%%%%%%%%%%%%%%%%OOOOOOOOOOOO....    ",
"            ....OOOOOOOOOOOO%%%%%%%%%%%%%%%%OOOOOOOOOOOO....    ",
"        ........OOOOOOOOOOOOOOOOOOOOOOOOOOOOOOOOOOOOOOOO....    ",
"        ........OOOOOOOOOOOOOOOOOOOOOOOOOOOOOOOOOOOOOOOO....    ",
"        ........OOOOOOOOOOOOOOOOOOOOOOOOOOOOOOOOOOOOOOOO....    ",
"        ........OOOOOOOOOOOOOOOOOOOOOOOOOOOOOOOOOOOOOOOO....    ",
"        ....%%%%XXXXXXXXOOOOOOOOOOOOOOOOOOOOOOOOOOOOOOOO....    ",
"        ....%%%%XXXXXXXXOOOOOOOOOOOOOOOOOOOOOOOOOOOOOOOO....    ",
"        ....%%%%XXXXXXXXOOOOOOOOOOOOOOOOOOOOOOOOOOOOOOOO....    ",
"        ....%%%%XXXXXXXXOOOOOOOOOOOOOOOOOOOOOOOOOOOOOOOO....    ",
"            OOOO%%%%%%%%XXXXXXXXXXXXOOOOOOOOOOOOOOOO....        ",
"            OOOO%%%%%%%%XXXXXXXXXXXXOOOOOOOOOOOOOOOO....        ",
"            OOOO%%%%%%%%XXXXXXXXXXXXOOOOOOOOOOOOOOOO....        ",
"            OOOO%%%%%%%%XXXXXXXXXXXXOOOOOOOOOOOOOOOO....        ",
"            ....OOOOOOOO....OOOOOOOO....................        ",
"            ....OOOOOOOO....OOOOOOOO....................        ",
"            ....OOOOOOOO....OOOOOOOO....................        ",
"            ....OOOOOOOO....OOOOOOOO....................        ",
"            ++++$$$$$$$$....$$$$$$$$XXXX&&&&$$$$........        ",
"            ++++$$$$$$$$....$$$$$$$$XXXX&&&&$$$$........        ",
"            ++++$$$$$$$$....$$$$$$$$XXXX&&&&$$$$........        ",
"            ++++$$$$$$$$....$$$$$$$$XXXX&&&&$$$$........        ",
"                ++++&&&&&&&&&&&&$$$$XXXX&&&&$$$$....            ",
"                ++++&&&&&&&&&&&&$$$$XXXX&&&&$$$$....            ",
"                ++++&&&&&&&&&&&&$$$$XXXX&&&&$$$$....            ",
"                ++++&&&&&&&&&&&&$$$$XXXX&&&&$$$$....            ",
"                    ++++$$$$$$$$$$$$$$$$++++....                ",
"                    ++++$$$$$$$$$$$$$$$$++++....                ",
"                    ++++$$$$$$$$$$$$$$$$++++....                ",
"                    ++++$$$$$$$$$$$$$$$$++++....                ",
"                    ooooOOOOOOOO........OOOOOOOO                ",
"                    ooooOOOOOOOO........OOOOOOOO                ",
"                    ooooOOOOOOOO........OOOOOOOO                ",
"                    ooooOOOOOOOO........OOOOOOOO                ",
"                    oooo####....%%%%%%%%....OOOO....            ",
"                    oooo####....%%%%%%%%....OOOO....            ",
"                    oooo####....%%%%%%%%....OOOO....            ",
"                    oooo####....%%%%%%%%....OOOO....            ",
"                    oooo####....%%%%%%%%....OOOO....            ",
"                    oooo####....%%%%%%%%....OOOO....            ",
"                    oooo####....%%%%%%%%....OOOO....            ",
"                    oooo####....%%%%%%%%....OOOO....            ",
"                    ....@@@@....========....OOOO....            ",
"                    ....@@@@....========....OOOO....            ",
"                    ....@@@@....========....OOOO....            ",
"                    ....@@@@....========....OOOO....            ",
"                        ........********........                ",
"                        ........********........                ",
"                        ........********........                ",
"                        ........********........                ",
"                        ....OOOO........OOOO....                ",
"                        ....OOOO........OOOO....                ",
"                        ....OOOO........OOOO....                ",
"                        ....OOOO........OOOO....                ",
"                        ....********%%%%....                    ",
"                        ....********%%%%....                    ",
"                        ....********%%%%....                    ",
"                        ....********%%%%....                    ",
"                            ............                        ",
"                            ............                        ",
"                            ............                        ",
"                            ............                        ",
"                                                                ",
"                                                                ",
"                                                                ",
"                                                                "
};
