/* XPM */
static char *_505ae5787034ae0e98c4085a22db909T8kecqiKvEFS3rAW[] = {
/* columns rows colors chars-per-pixel */
"64 128 13 1 ",
"  c None",
". c black",
"X c #383818",
"o c #501000",
"O c #484858",
"+ c #784040",
"@ c #904028",
"# c #E07050",
"$ c #D89870",
"% c #889090",
"& c #F0C098",
"* c #C0C8D8",
"= c #FFFDFD",
/* pixels */
"                                                                ",
"                                                                ",
"                                                                ",
"                                                                ",
"                                                                ",
"                                                                ",
"                                                                ",
"                                                                ",
"                                                                ",
"                                                                ",
"                                                                ",
"                                                                ",
"                                                                ",
"                                                                ",
"                                                                ",
"                                                                ",
"                                                                ",
"                                                                ",
"                                                                ",
"                                                                ",
"                                                                ",
"                                                                ",
"                                                                ",
"                                                                ",
"                                                                ",
"                                                                ",
"                                                                ",
"                                                                ",
"                                                                ",
"                                                                ",
"                                                                ",
"                                                                ",
"                                                                ",
"                                                                ",
"                                                                ",
"                                                                ",
"                                                                ",
"                                                                ",
"                                                                ",
"                                                                ",
"                                                                ",
"                                                                ",
"                                                                ",
"                                                                ",
"                    OOOOOOOOOOOOOOOO                            ",
"                    OOOOOOOOOOOOOOOO                            ",
"                    OOOOOOOOOOOOOOOO                            ",
"                    OOOOOOOOOOOOOOOO                            ",
"            XXXXXXXX%%%%%%%%%%%%%%%%XXXXXXXX                    ",
"            XXXXXXXX%%%%%%%%%%%%%%%%XXXXXXXX                    ",
"            XXXXXXXX%%%%%%%%%%%%%%%%XXXXXXXX                    ",
"            XXXXXXXX%%%%%%%%%%%%%%%%XXXXXXXX                    ",
"        ....OOOO%%%%%%%%%%%%%%%%%%%%%%%%OOOOXXXX                ",
"        ....OOOO%%%%%%%%%%%%%%%%%%%%%%%%OOOOXXXX                ",
"        ....OOOO%%%%%%%%%%%%%%%%%%%%%%%%OOOOXXXX                ",
"        ....OOOO%%%%%%%%%%%%%%%%%%%%%%%%OOOOXXXX                ",
"        XXXXOOOO%%%%%%%%%%%%%%%%%%%%%%%%OOOOOOOO....            ",
"        XXXXOOOO%%%%%%%%%%%%%%%%%%%%%%%%OOOOOOOO....            ",
"        XXXXOOOO%%%%%%%%%%%%%%%%%%%%%%%%OOOOOOOO....            ",
"        XXXXOOOO%%%%%%%%%%%%%%%%%%%%%%%%OOOOOOOO....            ",
"    ....OOOOOOOOOOOO%%%%%%%%%%%%%%%%OOOOOOOOOOOO....            ",
"    ....OOOOOOOOOOOO%%%%%%%%%%%%%%%%OOOOOOOOOOOO....            ",
"    ....OOOOOOOOOOOO%%%%%%%%%%%%%%%%OOOOOOOOOOOO....            ",
"    ....OOOOOOOOOOOO%%%%%%%%%%%%%%%%OOOOOOOOOOOO....            ",
"    ....OOOOOOOOOOOOOOOOOOOOOOOOOOOOOOOOOOOOOOOO........        ",
"    ....OOOOOOOOOOOOOOOOOOOOOOOOOOOOOOOOOOOOOOOO........        ",
"    ....OOOOOOOOOOOOOOOOOOOOOOOOOOOOOOOOOOOOOOOO........        ",
"    ....OOOOOOOOOOOOOOOOOOOOOOOOOOOOOOOOOOOOOOOO........        ",
"    ....OOOOOOOOOOOOOOOOOOOOOOOOOOOOOOOOXXXXXXXX%%%%....        ",
"    ....OOOOOOOOOOOOOOOOOOOOOOOOOOOOOOOOXXXXXXXX%%%%....        ",
"    ....OOOOOOOOOOOOOOOOOOOOOOOOOOOOOOOOXXXXXXXX%%%%....        ",
"    ....OOOOOOOOOOOOOOOOOOOOOOOOOOOOOOOOXXXXXXXX%%%%....        ",
"        ....OOOOOOOOOOOOOOOOXXXXXXXXXXXX%%%%%%%%OOOO            ",
"        ....OOOOOOOOOOOOOOOOXXXXXXXXXXXX%%%%%%%%OOOO            ",
"        ....OOOOOOOOOOOOOOOOXXXXXXXXXXXX%%%%%%%%OOOO            ",
"        ....OOOOOOOOOOOOOOOOXXXXXXXXXXXX%%%%%%%%OOOO            ",
"        ....................OOOOOOOO....OOOOOOOO....            ",
"        ....................OOOOOOOO....OOOOOOOO....            ",
"        ....................OOOOOOOO....OOOOOOOO....            ",
"        ....................OOOOOOOO....OOOOOOOO....            ",
"        ........$$$$&&&&XXXX$$$$$$$$....$$$$$$$$++++            ",
"        ........$$$$&&&&XXXX$$$$$$$$....$$$$$$$$++++            ",
"        ........$$$$&&&&XXXX$$$$$$$$....$$$$$$$$++++            ",
"        ........$$$$&&&&XXXX$$$$$$$$....$$$$$$$$++++            ",
"            ....$$$$&&&&XXXX$$$$&&&&&&&&&&&&++++                ",
"            ....$$$$&&&&XXXX$$$$&&&&&&&&&&&&++++                ",
"            ....$$$$&&&&XXXX$$$$&&&&&&&&&&&&++++                ",
"            ....$$$$&&&&XXXX$$$$&&&&&&&&&&&&++++                ",
"                ....++++$$$$$$$$$$$$$$$$++++                    ",
"                ....++++$$$$$$$$$$$$$$$$++++                    ",
"                ....++++$$$$$$$$$$$$$$$$++++                    ",
"                ....++++$$$$$$$$$$$$$$$$++++                    ",
"                OOOOOOOO........OOOOOOOOoooo                    ",
"                OOOOOOOO........OOOOOOOOoooo                    ",
"                OOOOOOOO........OOOOOOOOoooo                    ",
"                OOOOOOOO........OOOOOOOOoooo                    ",
"            ....OOOO....%%%%%%%%....####oooo                    ",
"            ....OOOO....%%%%%%%%....####oooo                    ",
"            ....OOOO....%%%%%%%%....####oooo                    ",
"            ....OOOO....%%%%%%%%....####oooo                    ",
"            ....OOOO....%%%%%%%%....####oooo                    ",
"            ....OOOO....%%%%%%%%....####oooo                    ",
"            ....OOOO....%%%%%%%%....####oooo                    ",
"            ....OOOO....%%%%%%%%....####oooo                    ",
"            ....OOOO....========....@@@@....                    ",
"            ....OOOO....========....@@@@....                    ",
"            ....OOOO....========....@@@@....                    ",
"            ....OOOO....========....@@@@....                    ",
"                ........********........                        ",
"                ........********........                        ",
"                ........********........                        ",
"                ........********........                        ",
"                ....OOOO........OOOO....                        ",
"                ....OOOO........OOOO....                        ",
"                ....OOOO........OOOO....                        ",
"                ....OOOO........OOOO....                        ",
"                    ....%%%%********....                        ",
"                    ....%%%%********....                        ",
"                    ....%%%%********....                        ",
"                    ....%%%%********....                        ",
"                        ............                            ",
"                        ............                            ",
"                        ............                            ",
"                        ............                            ",
"                                                                ",
"                                                                ",
"                                                                ",
"                                                                "
};
