/* XPM */
static char *_fc301d7383246d0d907e9b4e2293c43aZYFhY9jUHxCbg9X[] = {
/* columns rows colors chars-per-pixel */
"64 64 12 1 ",
"  c None",
". c black",
"X c #183030",
"o c #305868",
"O c #886848",
"+ c #A05878",
"@ c #588050",
"# c #B89050",
"$ c #D8C078",
"% c #508090",
"& c #F8E0A8",
"* c #E8E8F8",
/* pixels */
"                                                                ",
"                                                                ",
"                                                                ",
"                                                                ",
"                                                                ",
"                                                                ",
"                                                                ",
"                                                                ",
"                    OOOOOOOOOO                                  ",
"                    OOOOOOOOOO                                  ",
"                OOOO&&&&&&&&&&OOOO                              ",
"                OOOO&&&&&&&&&&OOOO                              ",
"            OOOO&&&&&&&&&&&&&&&&&&OOOO                          ",
"            OOOO&&&&&&&&&&&&&&&&&&OOOO                          ",
"          oo##&&&&&&&&&&&&&&&&&&&&&&####    OOOOOOOOOO          ",
"          oo##&&&&&&&&&&&&&&&&&&&&&&####    OOOOOOOOOO          ",
"    OOOOoo##&&&&&&&&&&&&&&&&&&&&&&&&&&##OO##&&&&&&$$$$oooo      ",
"    OOOOoo##&&&&&&&&&&&&&&&&&&&&&&&&&&##OO##&&&&&&$$$$oooo      ",
"  OO**oo%%$$&&&&&&&&&&&&&&&&&&&&&&&&&&##&&&&&&&&&&##&&&&%%XX    ",
"  OO**oo%%$$&&&&&&&&&&&&&&&&&&&&&&&&&&##&&&&&&&&&&##&&&&%%XX    ",
"OO**&&oo##&&&&&&&&&&&&&&&&&&&&&&&&&&&&$$**++++$$&&..&&&&&&%%..  ",
"OO**&&oo##&&&&&&&&&&&&&&&&&&&&&&&&&&&&$$**++++$$&&..&&&&&&%%..  ",
"..$$&&..$$&&&&&&&&&&&&&&&&&&&&&&&&&&$$&&++++++++&&..&&&&%%%%%%..",
"..$$&&..$$&&&&&&&&&&&&&&&&&&&&&&&&&&$$&&++++++++&&..&&&&%%%%%%..",
"..**&&..$$&&&&&&&&&&&&&&&&&&&&&&&&&&$$&&++++++++&&&&&&%%%%%%oo..",
"..**&&..$$&&&&&&&&&&&&&&&&&&&&&&&&&&$$&&++++++++&&&&&&%%%%%%oo..",
"..$$..%%$$&&&&&&&&&&&&&&&&&&&&&&&&&&$$&&++++++##&&&&&&%%%%oo..  ",
"..$$..%%$$&&&&&&&&&&&&&&&&&&&&&&&&&&$$&&++++++##&&&&&&%%%%oo..  ",
"..##..%%$$&&&&&&&&&&&&&&&&&&&&&&&&&&##&&**++++&&&&##&&&&%%oo..  ",
"..##..%%$$&&&&&&&&&&&&&&&&&&&&&&&&&&##&&**++++&&&&##&&&&%%oo..  ",
"  ....oo##&&&&&&&&&&&&&&&&&&&&&&&&&&##&&++++&&&&&&..&&&&&&ooXX  ",
"  ....oo##&&&&&&&&&&&&&&&&&&&&&&&&&&##&&++++&&&&&&..&&&&&&ooXX  ",
"  @@..oo##$$&&&&&&&&&&&&&&&&&&&&&&$$$$##&&&&&&&&&&..&&&&&&ooXX@@",
"  @@..oo##$$&&&&&&&&&&&&&&&&&&&&&&$$$$##&&&&&&&&&&..&&&&&&ooXX@@",
"@@@@..oooo$$$$$$&&&&&&&&&&&&&&&&$$$$$$##&&&&&&&&&&&&&&&&%%%%XX@@",
"@@@@..oooo$$$$$$&&&&&&&&&&&&&&&&$$$$$$##&&&&&&&&&&&&&&&&%%%%XX@@",
"@@@@..XXoo##$$$$$$$$&&&&&&&&$$$$$$$$##%%##&&&&&&&&&&&&%%%%%%XX@@",
"@@@@..XXoo##$$$$$$$$&&&&&&&&$$$$$$$$##%%##&&&&&&&&&&&&%%%%%%XX@@",
"@@..XXoooooo$$$$$$$$$$$$$$$$$$$$$$$$%%%%%%oo##$$$$%%%%%%%%%%%%..",
"@@..XXoooooo$$$$$$$$$$$$$$$$$$$$$$$$%%%%%%oo##$$$$%%%%%%%%%%%%..",
"@@..oooooooooo$$$$$$$$$$$$$$$$$$$$oo%%%%%%%%oooooooooooo%%%%%%XX",
"@@..oooooooooo$$$$$$$$$$$$$$$$$$$$oo%%%%%%%%oooooooooooo%%%%%%XX",
"@@..&&&&oooooooooo$$$$$$$$$$$$oooo%%%%%%%%%%XXooooooooooXXXXXX@@",
"@@..&&&&oooooooooo$$$$$$$$$$$$oooo%%%%%%%%%%XXooooooooooXXXXXX@@",
"..$$&&&&&&oooooooooooooooooooooooo%%%%%%%%%%XXooooooXXXX..@@@@@@",
"..$$&&&&&&oooooooooooooooooooooooo%%%%%%%%%%XXooooooXXXX..@@@@@@",
"..**&&&&&&ooooooooooooooooooooooXX%%%%%%%%%%%%XX....@@@@@@@@@@@@",
"..**&&&&&&ooooooooooooooooooooooXX%%%%%%%%%%%%XX....@@@@@@@@@@@@",
"..##&&&&&&&&XXooooooooooooooooooXX%%%%%%%%%%%%..@@@@@@@@@@@@@@@@",
"..##&&&&&&&&XXooooooooooooooooooXX%%%%%%%%%%%%..@@@@@@@@@@@@@@@@",
"..**$$&&&&$$XXooooooooooooooooooooXX%%%%%%%%%%..@@@@@@@@@@@@@@@@",
"..**$$&&&&$$XXooooooooooooooooooooXX%%%%%%%%%%..@@@@@@@@@@@@@@@@",
"  ..##$$$$##XX....oooooooooooo......**%%%%%%%%..@@@@@@@@@@@@@@  ",
"  ..##$$$$##XX....oooooooooooo......**%%%%%%%%..@@@@@@@@@@@@@@  ",
"  ..**####....@@@@............@@@@@@..**XX**..@@@@@@@@@@@@@@    ",
"  ..**####....@@@@............@@@@@@..**XX**..@@@@@@@@@@@@@@    ",
"    XX....@@@@@@@@@@@@@@@@@@@@@@@@@@@@XXXXXX@@@@@@@@@@@@        ",
"    XX....@@@@@@@@@@@@@@@@@@@@@@@@@@@@XXXXXX@@@@@@@@@@@@        ",
"              @@@@@@@@@@@@@@@@@@@@@@@@@@@@@@@@@@@@              ",
"              @@@@@@@@@@@@@@@@@@@@@@@@@@@@@@@@@@@@              ",
"                        @@@@@@@@@@@@@@                          ",
"                        @@@@@@@@@@@@@@                          ",
"                                                                ",
"                                                                "
};
