/* XPM */
static char *_2f2b143114c454d8e5f3d0e1f5ec9675KYNV6mt8ZxnL21o[] = {
/* columns rows colors chars-per-pixel */
"64 64 9 1 ",
"  c #3DB188",
". c #3DB189",
"X c #6FC8A0",
"o c #6FC9A0",
"O c #6FC9A1",
"+ c #70C9A1",
"@ c #A0E0C0",
"# c #A1E0C1",
"$ c #A1E1C1",
/* pixels */
"XXXX++++++++++++OOXXXXXXXXXX++++OOoo++++XXXX++++++++++++OOoo++++",
"XXXX++++++++++++OOXXooXXXXXX++++OOoO++++XXXX++++++++++++OOoo++++",
"XXXX++++++++++++OOOOoXXXOOXX++++OOOO++++XXXX++++++++++++OOOO++++",
"XXXX++++++++++++OOOOoXXXOOXX++++OXOO++++XXXX++++++++++++OOOO++++",
"XXXXXXXX++++++++++++++++OOOOOOOOoooo++++OOOO++++++++++++OOOO++++",
"XXXXXXXX++++++++++++++++OOOOOOOOoooo++++OOOO++++++++++++OOOO++++",
"XXXXXXXX++++++++++++++++OOOOOOOOXXoo++++OOOO++++++++++++OOOO++++",
"XXXXXXXX++++++++++++++++OOOOOOOOXXoo++++OOOO++++++++++++OOOO++++",
"++++XXXXXXXXXXXX++++++++XXXo++++++++++++XXXX++++++++XXXXooooOOOO",
"++++XXXXXXXXXXXX++++++++XXXo++++++++++++XXXX++++++++XXXXooooOOOO",
"++++XXXXXXXXOOXX++++++++XXoo++++++++++++OOXX++++++++XXXXooooOOOO",
"++++XXXXXXXXOOOO++++++++XXoo++++++++++++OOXX++++++++XXXXooooOOOO",
"++++++++OOOOXXXX++++    ++++++++++++++++++++++++++++ooXX++++++++",
"++++++++OOOOXXXX++++    ++++++++++++++++++++++++++++ooXX++++++++",
"++++++++OOOOXXXX++++..  ++++++++++++++++++++++++++++oooo++++++++",
"++++++++OOOOXXXX++++..  ++++++++++++++++++++++++++++oooo++++++++",
"++++++++  ..OOXXXX++....OOXo++++    XXXXooooOOOOXXXXXXXX++++++++",
"++++++++  ..OOXXXX++....OOoo++++    XXXXooooOOOOXXXXXXXX++++++++",
"++++++++    OOOOXXX+  ..OOOO++++    XXXXXXooooOOOOXXXXXX++++++++",
"++++++++    OOOOXXX+    OOOO++++    XXXXXXooooOOOOXXXXXX++++++++",
"++++++++++++    ++++++++++++... ++++++++++++XXOO++++OOOOXXXX++++",
"++++++++++++    ++++++++++++... ++++++++++++XXOO++++OOOOXXXX++++",
"++++++++++++    ++++++++++++..  ++++++++++++XXXX++++OOOOXXXX++++",
"++++++++++++    ++++++++++++..  ++++++++++++XXXX++++OOOOXXXX++++",
"++++OOoo++++XXXX++++++++++++++++++++++++++++XXXX++++XXXXXXXX++++",
"++++OOoo++++XXXX++++++++++++++++++++++++++++XXXX++++XXXXXXXX++++",
"++++OOOO++++XXXX++++++++++++++++++++++++++++XXXX++++XXXXXXXX++++",
"++++OOOO++++XXXX++++++++++++++++++++++++++++XXXX++++XXXXXXXX++++",
"++++++++ooXX++++++++++++++++++++XXXX++++ooooooooOOOOOOOO++++OOOO",
"++++++++ooXX++++++++++++++++++++XXXX++++ooooooooOOOOOOOO++++OOOO",
"++++++++oooo+++++++++++++++++XX+XXXX++++ooooXXooooOOOOOO++++OOOO",
"++++++++oooo++++++++++++++++XXXXXXXX++++ooooXXooooOOOOOO++++OOOO",
"++++++++OOOO++++OOOO++++ooooooooooooXXXXOOOO++++XXXX++++XXXXXXXX",
"++++++++OOOO++++OOOO++++ooooooooooooXXXXOOOO++++XXXX++++XXXXXXXX",
"++++++++OOOO++++ooOO++++ooooXXooooooXXXXOOOO++++XXXX++++XXXXXXXX",
"++++++++OOOO++++ooOO++++ooooXXooooooXXXXOOOO++++XXXX++++XXXXXXXX",
"OOOOXXXXXXXX++++ooooOOOOXXXX++++XXXX++++XXXX$$$$++++++++OOOO++++",
"OOOOXXXXXXXX++++ooooOOOOXXXX++++XXXX++++XXXX$$$$++++++++OOOO++++",
"OOOOXXXXXXXX++++ooooOOOOOOXX++++XXXX++++XXXX$$$$++++++++ooOO++++",
"OOOOXXXXXXXX++++ooooOOOOOOXX++++XXXX++++XXXX$$$$++++++++ooOO++++",
"XXXX++++ooooXXOOOOOO++++OOoo++++@@@@oooooooo$$$$++++++++$$@@o+++",
"XXXX++++ooooXXOOOOOO++++OOoo++++@@@@oooooooo$$$$++++++++@@@@X+++",
"XXXX++++ooooXXXXOOOO++++OOOO++++@@@@oooooooo$$$$++++++++@@@@++++",
"XXXX++++ooooXXXXOOOO++++OOOO++++@@@@oooooooo$$$$++++++++@@@@++++",
"++++++++XXXX++++oooooooo++++++++++++@@@@++++XXOOOOOO$$##XXXXoooo",
"++++++++XXXX++++oooooooo++++++++++++@@@@++++XXOOOOOO$$##XXXXoooo",
"++++++++XXXX++++XXoooooo++++++++++++@@@@++++XXXXOOOO$$$$OOXXXXoo",
"++++++++XXXX++++XXoooooo++++++++++++@@@@++++XXXXOOOO$$$$OOXXXXXo",
"XXXX++++++++OOOOXXXXOOOOOOOO++++XXXX++++oooo++++OOOO++++XXXX++++",
"XXXX++++++++OOOOXXXXOOOOOOOO++++XXXX++++oooo++++OOOO++++XXXX++++",
"XXXX++++++++OOOOXXXXOOOOOOOO++++XXXX++++oooo++++XXOO++++XXXX++++",
"XXXX++++++++OOOOXXXXOOOOOOOO++++XXXX++++oooo++++XXOO++++XXXX++++",
"++++++++++++XXXXOOOOXXXXOOOO++++ooooXXXX++++++++XX++++++++++++++",
"++++++++++++XXXXOOOOXXXXOOOO++++ooooXXXX++++++++XX++++++++++++++",
"++++++++++++XXXXOOOOOOXXOOOO++++ooooXXXX++++++++XXX+++++++++++++",
"++++++++++++XXXXOOOOOOXXOOOO++++ooooXXXX++++++++XXX+++++++++++++",
"++++++++++++++++++++ooXXXXXX++++XXXXXXXXXXXXXXXX++++++++++++++++",
"++++++++++++++++++++ooXXXXXX++++XXXXXXXXXXXXXXXX++++++++++++++++",
"++++++++++++++++++++ooooOOXX++++XXXXXXXXXXooXXXX++++++++++++++++",
"++++++++++++++++++++ooooOOXX++++XXXXXXXXoooXXXXX++++++++++++++++",
"++++++++++++++++++++OOXOXXXX++++XXXXXXXXOOXXOOOO+++++XOO++++++++",
"++++++++++++++++++++OOOOXXXX++++XXXXXXXXOOXXOOOO++++++OO++++++++",
"++++++++++++++++++++OoOOXXXX++++XXXXXXXXOOOOOOOO++++++++++++++++",
"++++++++++++++++++++ooOOXXXX++++XXXXXXXXOOOOOOOO++++X+++++++++++"
};
