/* XPM */
static char *_71fc1d53fc84becc071c899bb79c874fHVCW5ugbqpa7buV[] = {
/* columns rows colors chars-per-pixel */
"64 64 5 1 ",
"  c black",
". c #484848",
"X c #686850",
"o c #68CE02",
"O c #9BFF35",
/* pixels */
"OOOOOOOOOOOOooooXXXXXXXXXXXXXXXXXXXXXXXXXXXXooooOOOOOOOOOOOOOOOO",
"OOOOOOOOOOOOooooXXXXXXXXXXXXXXXXXXXXXXXXXXXXooooOOOOOOOOOOOOOOOO",
"OOOOOOOOOOOOooooXXXXXXXXXXXXXXXXXXXXXXXXXXXXooooOOOOOOOOOOOOOOOO",
"OOOOOOOOOOOOooooXXXXXXXXXXXXXXXXXXXXXXXXXXXXooooOOOOOOOOOOOOOOOO",
"OOOOooooXXXXXXXXXXXXXXXXXXXXXXXXXXXXXXXXXXXXXXXXXXXXXXXXooooOOOO",
"OOOOooooXXXXXXXXXXXXXXXXXXXXXXXXXXXXXXXXXXXXXXXXXXXXXXXXooooOOOO",
"OOOOooooXXXXXXXXXXXXXXXXXXXXXXXXXXXXXXXXXXXXXXXXXXXXXXXXooooOOOO",
"OOOOooooXXXXXXXXXXXXXXXXXXXXXXXXXXXXXXXXXXXXXXXXXXXXXXXXooooOOOO",
"OOOOXXXXXXXXXXXXXXXX........................XXXXXXXXXXXXXXXXOOOO",
"OOOOXXXXXXXXXXXXXXXX........................XXXXXXXXXXXXXXXXOOOO",
"OOOOXXXXXXXXXXXXXXXX........................XXXXXXXXXXXXXXXXOOOO",
"OOOOXXXXXXXXXXXXXXXX........................XXXXXXXXXXXXXXXXOOOO",
"ooooXXXX............................................XXXXXXXXoooo",
"ooooXXXX............................................XXXXXXXXoooo",
"ooooXXXX............................................XXXXXXXXoooo",
"ooooXXXX............................................XXXXXXXXoooo",
"XXXX................        ............................XXXXXXXX",
"XXXX................        ............................XXXXXXXX",
"XXXX................        ............................XXXXXXXX",
"XXXX................        ............................XXXXXXXX",
"XXXX....    ....                ............................XXXX",
"XXXX....    ....                ............................XXXX",
"XXXX....    ....                ............................XXXX",
"XXXX....    ....                ............................XXXX",
"XXXX                                ........            ....XXXX",
"XXXX                                ........            ....XXXX",
"XXXX                                ........            ....XXXX",
"XXXX                                ........            ....XXXX",
"XXXX                                                    ....XXXX",
"XXXX                                                    ....XXXX",
"XXXX                                                    ....XXXX",
"XXXX                                                    ....XXXX",
"XXXX                                                        XXXX",
"XXXX                                                        XXXX",
"XXXX                                                        XXXX",
"XXXX                                                        XXXX",
"XXXX                                                        XXXX",
"XXXX                                                        XXXX",
"XXXX                                                        XXXX",
"XXXX                                                        XXXX",
"XXXX                                                        oooo",
"XXXX                                                        oooo",
"XXXX                                                        oooo",
"XXXX                                                        oooo",
"oooo....                                                    OOOO",
"oooo....                                                    OOOO",
"oooo....                                                    OOOO",
"oooo....                                                    OOOO",
"OOOO....                                                ....OOOO",
"OOOO....                                                ....OOOO",
"OOOO....                                                ....OOOO",
"OOOO....                                                ....OOOO",
"OOOOoooo....                                        ....ooooOOOO",
"OOOOoooo....                                        ....ooooOOOO",
"OOOOoooo....                                        ....ooooOOOO",
"OOOOoooo....                                        ....ooooOOOO",
"OOOOOOOOOOOOoooo........                    ........ooooOOOOOOOO",
"OOOOOOOOOOOOoooo........                    ........ooooOOOOOOOO",
"OOOOOOOOOOOOoooo........                    ........ooooOOOOOOOO",
"OOOOOOOOOOOOoooo........                    ........ooooOOOOOOOO",
"OOOOOOOOOOOOOOOOOOOOooooXXXXXXXXXXXXXXXXXXXXooooOOOOOOOOOOOOOOOO",
"OOOOOOOOOOOOOOOOOOOOooooXXXXXXXXXXXXXXXXXXXXooooOOOOOOOOOOOOOOOO",
"OOOOOOOOOOOOOOOOOOOOooooXXXXXXXXXXXXXXXXXXXXooooOOOOOOOOOOOOOOOO",
"OOOOOOOOOOOOOOOOOOOOooooXXXXXXXXXXXXXXXXXXXXooooOOOOOOOOOOOOOOOO"
};
