/* XPM */
static char *_e7959d6cf3b47c2a257adb7f0593ed9zel89knWR8iwejiv[] = {
/* columns rows colors chars-per-pixel */
"192 64 2 1 ",
"  c black",
". c white",
/* pixels */
"                                                                                                                                                                                                ",
"                                                                                                                                                                                                ",
"                                                                                                                                                                                                ",
"                                                                                                                                                                                                ",
"                                                                                                                                                                                                ",
"                                                                                                                                                                                                ",
"                                                                                                                                                                                                ",
"                                                                                                                                                                                                ",
"                                                                                                                                                                                                ",
"                                                                                                                                                                                                ",
"                                                                                                                                                                                                ",
"                                                                                                                                                                                                ",
"                                                                                                                                                                                                ",
"                               ..............  ..          ..        ..        ..          ..  ..        ..            ..          ..      ......      ..          ..                           ",
"                               ..............  ..          ..        ..        ..          ..  ..        ..            ..          ..      ......      ..          ..                           ",
"                                     ..        ..          ..      ..  ..      ....        ..  ..      ..                ..      ..      ..      ..    ..          ..                           ",
"                                     ..        ..          ..      ..  ..      ....        ..  ..      ..                ..      ..      ..      ..    ..          ..                           ",
"                                     ..        ..          ..      ..  ..      ..  ..      ..  ..    ..                    ..  ..      ..          ..  ..          ..                           ",
"                                     ..        ..          ..      ..  ..      ..  ..      ..  ..    ..                    ..  ..      ..          ..  ..          ..                           ",
"                                     ..        ..............    ..      ..    ..    ..    ..  ..  ....                      ..        ..          ..  ..          ..                           ",
"                                     ..        ..............    ..      ..    ..    ..    ..  ..  ....                      ..        ..          ..  ..          ..                           ",
"                                     ..        ..          ..    ..........    ..      ..  ..  ....    ..                    ..        ..          ..  ..          ..                           ",
"                                     ..        ..          ..    ..........    ..      ..  ..  ....    ..                    ..        ..          ..  ..          ..                           ",
"                                     ..        ..          ..  ..          ..  ..        ....  ..        ..                  ..          ..      ..      ..        ..                           ",
"                                     ..        ..          ..  ..          ..  ..        ....  ..        ..                  ..          ..      ..      ..        ..                           ",
"                                     ..        ..          ..  ..          ..  ..          ..  ..          ..                ..            ......          ..........                           ",
"                                     ..        ..          ..  ..          ..  ..          ..  ..          ..                ..            ......          ..........                           ",
"                                                                                                                                                                                                ",
"                                                                                                                                                                                                ",
"                                                                                                                                                                                                ",
"                                                                                                                                                                                                ",
"                                                                                                                                                                                                ",
"                                                                                                                                                                                                ",
"                                                                                                                                                                                                ",
"                                                                                                                                                                                                ",
"                                                                                                                                                                                                ",
"                                                                                                                                                                                                ",
"                 ..............      ......      ............            ............    ..                    ..        ..          ..  ..........  ..          ..      ........               ",
"                 ..............      ......      ............            ............    ..                    ..        ..          ..  ..........  ..          ..      ........               ",
"                 ..                ..      ..    ..          ..          ..          ..  ..                  ..  ..        ..      ..        ..      ....        ..    ..        ..             ",
"                 ..                ..      ..    ..          ..          ..          ..  ..                  ..  ..        ..      ..        ..      ....        ..    ..        ..             ",
"                 ..              ..          ..  ..          ..          ..          ..  ..                  ..  ..          ..  ..          ..      ..  ..      ..  ..                         ",
"                 ..              ..          ..  ..          ..          ..          ..  ..                  ..  ..          ..  ..          ..      ..  ..      ..  ..                         ",
"                 ............    ..          ..  ............            ............    ..                ..      ..          ..            ..      ..    ..    ..  ..    ........             ",
"                 ............    ..          ..  ............            ............    ..                ..      ..          ..            ..      ..    ..    ..  ..    ........             ",
"                 ..              ..          ..  ..      ..              ..              ..                ..........          ..            ..      ..      ..  ..  ..          ..             ",
"                 ..              ..          ..  ..      ..              ..              ..                ..........          ..            ..      ..      ..  ..  ..          ..             ",
"                 ..                ..      ..    ..        ..            ..              ..              ..          ..        ..            ..      ..        ....    ..        ..             ",
"                 ..                ..      ..    ..        ..            ..              ..              ..          ..        ..            ..      ..        ....    ..        ..             ",
"                 ..                  ......      ..          ..          ..              ..............  ..          ..        ..        ..........  ..          ..      ........               ",
"                 ..                  ......      ..          ..          ..              ..............  ..          ..        ..        ..........  ..          ..      ........               ",
"                                                                                                                                                                                                ",
"                                                                                                                                                                                                ",
"                                                                                                                                                                                                ",
"                                                                                                                                                                                                ",
"                                                                                                                                                                                                ",
"                                                                                                                                                                                                ",
"                                                                                                                                                                                                ",
"                                                                                                                                                                                                ",
"                                                                                                                                                                                                ",
"                                                                                                                                                                                                ",
"                                                                                                                                                                                                ",
"                                                                                                                                                                                                ",
"                                                                                                                                                                                                "
};
