/* XPM */
static char *cf3fdb80b3fc49f3d6197646a8a31b049KZ445DpxVpWZyP9[] = {
/* columns rows colors chars-per-pixel */
"64 64 9 1 ",
"  c None",
". c black",
"X c #7B4242",
"o c #8C4252",
"O c #D66B7B",
"+ c #6384CE",
"@ c #FFA5B5",
"# c #94C5EF",
"$ c white",
/* pixels */
"                                                                ",
"                                                                ",
"                                                                ",
"                                                                ",
"                                                                ",
"                                                                ",
"                      XXXXXXXXXXXXXXXXXXXX                      ",
"                      XXXXXXXXXXXXXXXXXXXX                      ",
"                      XXXXXXXXXXXXXXXXXXXX                      ",
"                      XXXXXXXXXXXXXXXXXXXX                      ",
"          ooooooooooooOOOO@@@@@@@@@@@@OOOOoooooooooooo          ",
"          ooooooooooooOOOO@@@@@@@@@@@@OOOOoooooooooooo          ",
"          ooooooooooooOOOO@@@@@@@@@@@@OOOOoooooooooooo          ",
"          ooooooooooooOOOO@@@@@@@@@@@@OOOOoooooooooooo          ",
"      oooo....@@@@OOOO@@@@@@@@@@@@@@@@@@@@OOOO@@@@....oooo      ",
"      oooo....@@@@OOOO@@@@@@@@@@@@@@@@@@@@OOOO@@@@....oooo      ",
"      oooo....@@@@OOOO@@@@@@@@@@@@@@@@@@@@OOOO@@@@....oooo      ",
"      oooo....@@@@OOOO@@@@@@@@@@@@@@@@@@@@OOOO@@@@....oooo      ",
"      oooo........OOOO@@@@@@@@@@@@OOOOooooOOOO........oooo      ",
"      oooo........OOOO@@@@@@@@@@@@OOOOooooOOOO........oooo      ",
"      oooo........OOOO@@@@@@@@@@@@OOOOooooOOOO........oooo      ",
"      oooo........OOOO@@@@@@@@@@@@OOOOooooOOOO........oooo      ",
"      oooo....@@@@@@@@oooo@@@@OOOO@@@@oooo@@@@@@@@....oooo      ",
"      oooo....@@@@@@@@oooo@@@@OOOO@@@@oooo@@@@@@@@....oooo      ",
"      oooo....@@@@@@@@oooo@@@@OOOO@@@@oooo@@@@@@@@....oooo      ",
"      oooo....@@@@@@@@oooo@@@@OOOO@@@@oooo@@@@@@@@....oooo      ",
"      oooo@@@@@@@@@@@@@@@@oooooooooooo@@@@@@@@@@@@@@@@oooo      ",
"      oooo@@@@@@@@@@@@@@@@oooooooooooo@@@@@@@@@@@@@@@@oooo      ",
"      oooo@@@@@@@@@@@@@@@@oooooooooooo@@@@@@@@@@@@@@@@oooo      ",
"      oooo@@@@@@@@@@@@@@@@oooooooooooo@@@@@@@@@@@@@@@@oooo      ",
"      oooo@@@@@@@@$$$$$$$$@@@@@@@@@@@@$$$$$$$$@@@@@@@@oooo      ",
"      oooo@@@@@@@@$$$$$$$$@@@@@@@@@@@@$$$$$$$$@@@@@@@@oooo      ",
"      oooo@@@@@@@@$$$$$$$$@@@@@@@@@@@@$$$$$$$$@@@@@@@@oooo      ",
"      oooo@@@@@@@@$$$$$$$$@@@@@@@@@@@@$$$$$$$$@@@@@@@@oooo      ",
"      oooooooo$$$$####++++$$$$@@@@$$$$####++++$$$$oooooooo      ",
"      oooooooo$$$$####++++$$$$@@@@$$$$####++++$$$$oooooooo      ",
"      oooooooo$$$$####++++$$$$@@@@$$$$####++++$$$$oooooooo      ",
"      oooooooo$$$$####++++$$$$@@@@$$$$####++++$$$$oooooooo      ",
"      oooo@@@@$$$$++++++++$$$$@@@@$$$$++++++++$$$$@@@@oooo      ",
"      oooo@@@@$$$$++++++++$$$$@@@@$$$$++++++++$$$$@@@@oooo      ",
"      oooo@@@@$$$$++++++++$$$$@@@@$$$$++++++++$$$$@@@@oooo      ",
"      oooo@@@@$$$$++++++++$$$$@@@@$$$$++++++++$$$$@@@@oooo      ",
"          ooooOOOO$$$$$$$$@@@@XXXX@@@@$$$$$$$$OOOOoooo          ",
"          ooooOOOO$$$$$$$$@@@@XXXX@@@@$$$$$$$$OOOOoooo          ",
"          ooooOOOO$$$$$$$$@@@@XXXX@@@@$$$$$$$$OOOOoooo          ",
"          ooooOOOO$$$$$$$$@@@@XXXX@@@@$$$$$$$$OOOOoooo          ",
"              ooooooooOOOOOOOOOOOOOOOOOOOOoooooooo              ",
"              ooooooooOOOOOOOOOOOOOOOOOOOOoooooooo              ",
"              ooooooooOOOOOOOOOOOOOOOOOOOOoooooooo              ",
"              ooooooooOOOOOOOOOOOOOOOOOOOOoooooooo              ",
"              ....OOOOOOOO............OOOOOOOO....              ",
"              ....OOOOOOOO............OOOOOOOO....              ",
"              ....OOOOOOOO............OOOOOOOO....              ",
"              ....OOOOOOOO............OOOOOOOO....              ",
"                  ........            ........                  ",
"                  ........            ........                  ",
"                  ........            ........                  ",
"                  ........            ........                  ",
"                                                                ",
"                                                                ",
"                                                                ",
"                                                                ",
"                                                                ",
"                                                                "
};
