/* XPM */
static char *_456abbc3b654351ccf3fb472c2fea45gbQ9FtOGj8nrs8yd[] = {
/* columns rows colors chars-per-pixel */
"64 64 4 1 ",
"  c None",
". c black",
"X c #F83808",
"o c #F89850",
/* pixels */
"                    ........................                    ",
"                    ........................                    ",
"                    ........................                    ",
"                    ........................                    ",
"                ....XXXXXXXXXXXXXXXXXXXXXXXX....                ",
"                ....XXXXXXXXXXXXXXXXXXXXXXXX....                ",
"                ....XXXXXXXXXXXXXXXXXXXXXXXX....                ",
"                ....XXXXXXXXXXXXXXXXXXXXXXXX....                ",
"            ....XXXXXXXXXXXXXXXXXXXXXXXXXXXXXXXX....            ",
"            ....XXXXXXXXXXXXXXXXXXXXXXXXXXXXXXXX....            ",
"            ....XXXXXXXXXXXXXXXXXXXXXXXXXXXXXXXX....            ",
"            ....XXXXXXXXXXXXXXXXXXXXXXXXXXXXXXXX....            ",
"            ....XXXXXXXXXXXX........XXXXXXXXXXXX....            ",
"            ....XXXXXXXXXXXX........XXXXXXXXXXXX....            ",
"            ....XXXXXXXXXXXX........XXXXXXXXXXXX....            ",
"            ....XXXXXXXXXXXX........XXXXXXXXXXXX....            ",
"        ........XXXXXXXX................XXXXXXXX........        ",
"        ........XXXXXXXX................XXXXXXXX........        ",
"        ........XXXXXXXX................XXXXXXXX........        ",
"        ........XXXXXXXX................XXXXXXXX........        ",
"        ................XXXXXXXXXXXXXXXX................        ",
"        ................XXXXXXXXXXXXXXXX................        ",
"        ................XXXXXXXXXXXXXXXX................        ",
"        ................XXXXXXXXXXXXXXXX................        ",
"    ....oooo....oooooooooooooooooooooooooooooooo....oooo....    ",
"    ....oooo....oooooooooooooooooooooooooooooooo....oooo....    ",
"    ....oooo....oooooooooooooooooooooooooooooooo....oooo....    ",
"    ....oooo....oooooooooooooooooooooooooooooooo....oooo....    ",
"    ....oooooooooooooooo....oooooooo....oooooooooooooooo....    ",
"    ....oooooooooooooooo....oooooooo....oooooooooooooooo....    ",
"    ....oooooooooooooooo....oooooooo....oooooooooooooooo....    ",
"    ....oooooooooooooooo....oooooooo....oooooooooooooooo....    ",
"        ........oooooooo....oooooooo....oooooooo........        ",
"        ........oooooooo....oooooooo....oooooooo........        ",
"        ........oooooooo....oooooooo....oooooooo........        ",
"        ........oooooooo....oooooooo....oooooooo........        ",
"            ........ooooooooXXXXXXXXoooooooo........            ",
"            ........ooooooooXXXXXXXXoooooooo........            ",
"            ........ooooooooXXXXXXXXoooooooo........            ",
"            ........ooooooooXXXXXXXXoooooooo........            ",
"        ........ooooXXXX................XXXXoooo........        ",
"        ........ooooXXXX................XXXXoooo........        ",
"        ........ooooXXXX................XXXXoooo........        ",
"        ........ooooXXXX................XXXXoooo........        ",
"    ....oooooooo....ooooooooXXXXXXXXoooooooo....oooooooo....    ",
"    ....oooooooo....ooooooooXXXXXXXXoooooooo....oooooooo....    ",
"    ....oooooooo....ooooooooXXXXXXXXoooooooo....oooooooo....    ",
"    ....oooooooo....ooooooooXXXXXXXXoooooooo....oooooooo....    ",
"    ....oooooooo....XXXXXXXXooooooooXXXXXXXX....oooooooo....    ",
"    ....oooooooo....XXXXXXXXooooooooXXXXXXXX....oooooooo....    ",
"    ....oooooooo....XXXXXXXXooooooooXXXXXXXX....oooooooo....    ",
"    ....oooooooo....XXXXXXXXooooooooXXXXXXXX....oooooooo....    ",
"        ................................................        ",
"        ................................................        ",
"        ................................................        ",
"        ................................................        ",
"            ....XXXXXXXX................XXXXXXXX....            ",
"            ....XXXXXXXX................XXXXXXXX....            ",
"            ....XXXXXXXX................XXXXXXXX....            ",
"            ....XXXXXXXX................XXXXXXXX....            ",
"                ............        ............                ",
"                ............        ............                ",
"                ............        ............                ",
"                ............        ............                "
};
