/* XPM */
static char *c85ac349318c4945c7607827f7eac4a13oj3LO7h4kWkokO8[] = {
/* columns rows colors chars-per-pixel */
"64 128 13 1 ",
"  c None",
". c black",
"X c #682828",
"o c #383878",
"O c #784040",
"+ c #C03838",
"@ c #A87840",
"# c #F86848",
"$ c #D89070",
"% c #70A0C0",
"& c #F8C090",
"* c #B0B0D0",
"= c #E8E8F8",
/* pixels */
"                                                                ",
"                                                                ",
"                                                                ",
"                                                                ",
"                                                                ",
"                                                                ",
"                                                                ",
"                                                                ",
"                                                                ",
"                                                                ",
"                                                                ",
"                                                                ",
"                                                                ",
"                                                                ",
"                                                                ",
"                                                                ",
"                                                                ",
"                                                                ",
"                                                                ",
"                                                                ",
"                                                                ",
"                                                                ",
"                                                                ",
"                                                                ",
"                                                                ",
"                                                                ",
"                                                                ",
"                                                                ",
"                                                                ",
"                                                                ",
"                                                                ",
"                                                                ",
"                                                                ",
"                                                                ",
"                                                                ",
"                                                                ",
"                                                                ",
"                                                                ",
"                                                                ",
"                                                                ",
"                                                                ",
"                                                                ",
"                                                                ",
"                                                                ",
"                                                                ",
"                                                                ",
"                                                                ",
"                                                                ",
"                XXXXXXXXXXXXXXXXXXXXXXXXXXXXXXXX                ",
"                XXXXXXXXXXXXXXXXXXXXXXXXXXXXXXXX                ",
"                XXXXXXXXXXXXXXXXXXXXXXXXXXXXXXXX                ",
"                XXXXXXXXXXXXXXXXXXXXXXXXXXXXXXXX                ",
"            XXXX++++########################++++XXXX            ",
"            XXXX++++########################++++XXXX            ",
"            XXXX++++########################++++XXXX            ",
"            XXXX++++########################++++XXXX            ",
"            XXXX################################XXXX            ",
"            XXXX################################XXXX            ",
"            XXXX################################XXXX            ",
"            XXXX################################XXXX            ",
"        XXXX++++################################++++XXXX        ",
"        XXXX++++################################++++XXXX        ",
"        XXXX++++################################++++XXXX        ",
"        XXXX++++################################++++XXXX        ",
"        ....++++++++########################++++++++....        ",
"        ....++++++++########################++++++++....        ",
"        ....++++++++########################++++++++....        ",
"        ....++++++++########################++++++++....        ",
"        ....++++++++++++++++========++++++++++++++++....        ",
"        ....++++++++++++++++========++++++++++++++++....        ",
"        ....++++++++++++++++========++++++++++++++++....        ",
"        ....++++++++++++++++========++++++++++++++++....        ",
"    ....@@@@XXXX****++++****++++++++****++++****XXXX@@@@....    ",
"    ....@@@@XXXX****++++****++++++++****++++****XXXX@@@@....    ",
"    ....@@@@XXXX****++++****++++++++****++++****XXXX@@@@....    ",
"    ....@@@@XXXX****++++****++++++++****++++****XXXX@@@@....    ",
"    ....$$$$....oooo========================oooo....$$$$....    ",
"    ....$$$$....oooo========================oooo....$$$$....    ",
"    ....$$$$....oooo========================oooo....$$$$....    ",
"    ....$$$$....oooo========================oooo....$$$$....    ",
"        ....OOOO$$$$oooooooooooooooooooooooo$$$$OOOO....        ",
"        ....OOOO$$$$oooooooooooooooooooooooo$$$$OOOO....        ",
"        ....OOOO$$$$oooooooooooooooooooooooo$$$$OOOO....        ",
"        ....OOOO$$$$oooooooooooooooooooooooo$$$$OOOO....        ",
"        ....$$$$$$$$&&&&....&&&&&&&&....&&&&$$$$$$$$....        ",
"        ....$$$$$$$$&&&&....&&&&&&&&....&&&&$$$$$$$$....        ",
"        ....$$$$$$$$&&&&....&&&&&&&&....&&&&$$$$$$$$....        ",
"        ....$$$$$$$$&&&&....&&&&&&&&....&&&&$$$$$$$$....        ",
"            OOOO$$$$$$$$OOOO&&&&&&&&OOOO$$$$$$$$OOOO            ",
"            OOOO$$$$$$$$OOOO&&&&&&&&OOOO$$$$$$$$OOOO            ",
"            OOOO$$$$$$$$OOOO&&&&&&&&OOOO$$$$$$$$OOOO            ",
"            OOOO$$$$$$$$OOOO&&&&&&&&OOOO$$$$$$$$OOOO            ",
"        ....oooo....OOOO$$$$$$$$$$$$$$$$OOOO....oooo....        ",
"        ....oooo....OOOO$$$$$$$$$$$$$$$$OOOO....oooo....        ",
"        ....oooo....OOOO$$$$$$$$$$$$$$$$OOOO....oooo....        ",
"        ....oooo....OOOO$$$$$$$$$$$$$$$$OOOO....oooo....        ",
"    OOOO&&&&oooooooo++++................++++oooooooo&&&&OOOO    ",
"    OOOO&&&&oooooooo++++................++++oooooooo&&&&OOOO    ",
"    OOOO&&&&oooooooo++++................++++oooooooo&&&&OOOO    ",
"    OOOO&&&&oooooooo++++................++++oooooooo&&&&OOOO    ",
"    OOOO$$$$$$$$oooo++++++++********++++++++oooo$$$$$$$$OOOO    ",
"    OOOO$$$$$$$$oooo++++++++********++++++++oooo$$$$$$$$OOOO    ",
"    OOOO$$$$$$$$oooo++++++++********++++++++oooo$$$$$$$$OOOO    ",
"    OOOO$$$$$$$$oooo++++++++********++++++++oooo$$$$$$$$OOOO    ",
"        OOOO........++++####========####++++........OOOO        ",
"        OOOO........++++####========####++++........OOOO        ",
"        OOOO........++++####========####++++........OOOO        ",
"        OOOO........++++####========####++++........OOOO        ",
"            oooo%%%%oooo................oooo%%%%oooo            ",
"            oooo%%%%oooo................oooo%%%%oooo            ",
"            oooo%%%%oooo................oooo%%%%oooo            ",
"            oooo%%%%oooo................oooo%%%%oooo            ",
"            ........%%%%%%%%........%%%%%%%%........            ",
"            ........%%%%%%%%........%%%%%%%%........            ",
"            ........%%%%%%%%........%%%%%%%%........            ",
"            ........%%%%%%%%........%%%%%%%%........            ",
"            ....oooooooo....        ....oooooooo....            ",
"            ....oooooooo....        ....oooooooo....            ",
"            ....oooooooo....        ....oooooooo....            ",
"            ....oooooooo....        ....oooooooo....            ",
"                ........                ........                ",
"                ........                ........                ",
"                ........                ........                ",
"                ........                ........                ",
"                                                                ",
"                                                                ",
"                                                                ",
"                                                                "
};
