/* XPM */
static char *_b59d058993746fbd02a2b8d55faec33RSjHZpnPkh2di5Hx[] = {
/* columns rows colors chars-per-pixel */
"64 64 4 1 ",
"  c None",
". c black",
"X c #F83808",
"o c #F89850",
/* pixels */
"                    ........................                    ",
"                    ........................                    ",
"                    ........................                    ",
"                    ........................                    ",
"                ....XXXXXXXXXXXXXXXXXXXXXXXX....                ",
"                ....XXXXXXXXXXXXXXXXXXXXXXXX....                ",
"                ....XXXXXXXXXXXXXXXXXXXXXXXX....                ",
"                ....XXXXXXXXXXXXXXXXXXXXXXXX....                ",
"            ....XXXXXXXXXXXXXXXXXXXXXXXXXXXXXXXX....            ",
"            ....XXXXXXXXXXXXXXXXXXXXXXXXXXXXXXXX....            ",
"            ....XXXXXXXXXXXXXXXXXXXXXXXXXXXXXXXX....            ",
"            ....XXXXXXXXXXXXXXXXXXXXXXXXXXXXXXXX....            ",
"            ....XXXXXXXXXXXX........XXXXXXXXXXXX....            ",
"            ....XXXXXXXXXXXX........XXXXXXXXXXXX....            ",
"            ....XXXXXXXXXXXX........XXXXXXXXXXXX....            ",
"            ....XXXXXXXXXXXX........XXXXXXXXXXXX....            ",
"        ........XXXXXXXX................XXXXXXXX........        ",
"        ........XXXXXXXX................XXXXXXXX........        ",
"        ........XXXXXXXX................XXXXXXXX........        ",
"        ........XXXXXXXX................XXXXXXXX........        ",
"        ................XXXXXXXXXXXXXXXX................        ",
"        ................XXXXXXXXXXXXXXXX................        ",
"        ................XXXXXXXXXXXXXXXX................        ",
"        ................XXXXXXXXXXXXXXXX................        ",
"    ....oooo....oooooooooooooooooooooooooooooooo....oooo....    ",
"    ....oooo....oooooooooooooooooooooooooooooooo....oooo....    ",
"    ....oooo....oooooooooooooooooooooooooooooooo....oooo....    ",
"    ....oooo....oooooooooooooooooooooooooooooooo....oooo....    ",
"    ....oooooooooooooooo....oooooooo....oooooooooooooooo....    ",
"    ....oooooooooooooooo....oooooooo....oooooooooooooooo....    ",
"    ....oooooooooooooooo....oooooooo....oooooooooooooooo....    ",
"    ....oooooooooooooooo....oooooooo....oooooooooooooooo....    ",
"        ........oooooooo....oooooooo....oooooooo............    ",
"        ........oooooooo....oooooooo....oooooooo............    ",
"        ........oooooooo....oooooooo....oooooooo............    ",
"        ........oooooooo....oooooooo....oooooooo............    ",
"        ............ooooooooXXXXXXXXoooooooo........oooo....    ",
"        ............ooooooooXXXXXXXXoooooooo........oooo....    ",
"        ............ooooooooXXXXXXXXoooooooo........oooo....    ",
"        ............ooooooooXXXXXXXXoooooooo........oooo....    ",
"        ....XXXX............................oooo........        ",
"        ....XXXX............................oooo........        ",
"        ....XXXX............................oooo........        ",
"        ....XXXX............................oooo........        ",
"            ....oooooooo....ooooooooXXXXXXXX........            ",
"            ....oooooooo....ooooooooXXXXXXXX........            ",
"            ....oooooooo....ooooooooXXXXXXXX........            ",
"            ....oooooooo....ooooooooXXXXXXXX........            ",
"            ....oooooooo....XXXXXXXX............                ",
"            ....oooooooo....XXXXXXXX............                ",
"            ....oooooooo....XXXXXXXX............                ",
"            ....oooooooo....XXXXXXXX............                ",
"                ....................XXXXXXXX....                ",
"                ....................XXXXXXXX....                ",
"                ....................XXXXXXXX....                ",
"                ....................XXXXXXXX....                ",
"                                    ........                    ",
"                                    ........                    ",
"                                    ........                    ",
"                                    ........                    ",
"                                                                ",
"                                                                ",
"                                                                ",
"                                                                "
};
