/* XPM */
static char *adcf80fcc4f94b8bb74e86532b8f5064aTdKDrxdyuGJhajZ[] = {
/* columns rows colors chars-per-pixel */
"64 128 14 1 ",
"  c None",
". c black",
"X c #682828",
"o c #383878",
"O c #784040",
"+ c #C03838",
"@ c #F86848",
"# c #B89838",
"$ c #D89070",
"% c #F8D858",
"& c #70A0C0",
"* c #F8C090",
"= c #B0B0D0",
"- c #E8E8F8",
/* pixels */
"                                                                ",
"                                                                ",
"                                                                ",
"                                                                ",
"                                                                ",
"                                                                ",
"                                                                ",
"                                                                ",
"                                                                ",
"                                                                ",
"                                                                ",
"                                                                ",
"                                                                ",
"                                                                ",
"                                                                ",
"                                                                ",
"                                                                ",
"                                                                ",
"                                                                ",
"                                                                ",
"                                                                ",
"                                                                ",
"                                                                ",
"                                                                ",
"                                                                ",
"                                                                ",
"                                                                ",
"                                                                ",
"                                                                ",
"                                                                ",
"                                                                ",
"                                                                ",
"                                                                ",
"                                                                ",
"                                                                ",
"                                                                ",
"                                                                ",
"                                                                ",
"                                                                ",
"                                                                ",
"                                                                ",
"                                                                ",
"                                                                ",
"                                                                ",
"                                                                ",
"                                                                ",
"                                                                ",
"                                                                ",
"                                                                ",
"                                                                ",
"                                                                ",
"                                                                ",
"                XXXXXXXXXXXXXXXXXXXXXXXXXXXXXXXX                ",
"                XXXXXXXXXXXXXXXXXXXXXXXXXXXXXXXX                ",
"                XXXXXXXXXXXXXXXXXXXXXXXXXXXXXXXX                ",
"                XXXXXXXXXXXXXXXXXXXXXXXXXXXXXXXX                ",
"            XXXX++++@@@@@@@@@@@@@@@@@@@@@@@@++++XXXX            ",
"            XXXX++++@@@@@@@@@@@@@@@@@@@@@@@@++++XXXX            ",
"            XXXX++++@@@@@@@@@@@@@@@@@@@@@@@@++++XXXX            ",
"            XXXX++++@@@@@@@@@@@@@@@@@@@@@@@@++++XXXX            ",
"        XXXX++++@@@@@@@@@@@@@@@@@@@@@@@@@@@@@@@@XXXX            ",
"        XXXX++++@@@@@@@@@@@@@@@@@@@@@@@@@@@@@@@@XXXX            ",
"        XXXX++++@@@@@@@@@@@@@@@@@@@@@@@@@@@@@@@@XXXX            ",
"        XXXX++++@@@@@@@@@@@@@@@@@@@@@@@@@@@@@@@@XXXX            ",
"    XXXXXXXX----@@@@@@@@@@@@@@@@@@@@@@@@@@@@@@@@++++XXXX        ",
"    XXXXXXXX----@@@@@@@@@@@@@@@@@@@@@@@@@@@@@@@@++++XXXX        ",
"    XXXXXXXX----@@@@@@@@@@@@@@@@@@@@@@@@@@@@@@@@++++XXXX        ",
"    XXXXXXXX----@@@@@@@@@@@@@@@@@@@@@@@@@@@@@@@@++++XXXX        ",
"....----XXXX----++++@@@@@@@@@@@@@@@@@@@@@@@@++++++++XXXX        ",
"....----XXXX----++++@@@@@@@@@@@@@@@@@@@@@@@@++++++++XXXX        ",
"....----XXXX----++++@@@@@@@@@@@@@@@@@@@@@@@@++++++++XXXX        ",
"....----XXXX----++++@@@@@@@@@@@@@@@@@@@@@@@@++++++++XXXX        ",
"....----++++====++++++++++++++++++++++++++++++++++++XXXX        ",
"....----++++====++++++++++++++++++++++++++++++++++++XXXX        ",
"....----++++====++++++++++++++++++++++++++++++++++++XXXX        ",
"....----++++====++++++++++++++++++++++++++++++++++++XXXX        ",
"....----====++++++++++++++++++++++++++++++++++++XXXX....        ",
"....----====++++++++++++++++++++++++++++++++++++XXXX....        ",
"....----====++++++++++++++++++++++++++++++++++++XXXX....        ",
"....----====++++++++++++++++++++++++++++++++++++XXXX....        ",
"    ....============++++++++++++++++++++XXXXXXXXOOOO....        ",
"    ....============++++++++++++++++++++XXXXXXXXOOOO....        ",
"    ....============++++++++++++++++++++XXXXXXXXOOOO....        ",
"    ....============++++++++++++++++++++XXXXXXXXOOOO....        ",
"        OOOOooooXXXXXXXXXXXXXXXXXXXXXXXXOOOOOOOOOOOO....        ",
"        OOOOooooXXXXXXXXXXXXXXXXXXXXXXXXOOOOOOOOOOOO....        ",
"        OOOOooooXXXXXXXXXXXXXXXXXXXXXXXXOOOOOOOOOOOO....        ",
"        OOOOooooXXXXXXXXXXXXXXXXXXXXXXXXOOOOOOOOOOOO....        ",
"        OOOO$$$$$$$$....$$$$$$$$OOOO****$$$$OOOO....            ",
"        OOOO$$$$$$$$....$$$$$$$$OOOO****$$$$OOOO....            ",
"        OOOO$$$$$$$$....$$$$$$$$OOOO****$$$$OOOO....            ",
"        OOOO$$$$$$$$....$$$$$$$$OOOO****$$$$OOOO....            ",
"            OOOO****OOOO****$$$$$$$$****$$$$....                ",
"            OOOO****OOOO****$$$$$$$$****$$$$....                ",
"            OOOO****OOOO****$$$$$$$$****$$$$....                ",
"            OOOO****OOOO****$$$$$$$$****$$$$....                ",
"                OOOO$$$$$$$$$$$$$$$$OOOOOOOO####....            ",
"                OOOO$$$$$$$$$$$$$$$$OOOOOOOO####....            ",
"                OOOO$$$$$$$$$$$$$$$$OOOOOOOO####....            ",
"                OOOO$$$$$$$$$$$$$$$$OOOOOOOO####....            ",
"                ....OOOOOOOOooooXXXXOOOO####%%%%%%%%....        ",
"                ....OOOOOOOOooooXXXXOOOO####%%%%%%%%....        ",
"                ....OOOOOOOOooooXXXXOOOO####%%%%%%%%....        ",
"                ....OOOOOOOOooooXXXXOOOO####%%%%%%%%....        ",
"            ....********oooooooooooo++++####%%%%OOOO....        ",
"            ....********oooooooooooo++++####%%%%OOOO....        ",
"            ....********oooooooooooo++++####%%%%OOOO....        ",
"            ....********oooooooooooo++++####%%%%OOOO....        ",
"            ....$$$$$$$$oooooooo....++++XXXXOOOO####....        ",
"            ....$$$$$$$$oooooooo....++++XXXXOOOO####....        ",
"            ....$$$$$$$$oooooooo....++++XXXXOOOO####....        ",
"            ....$$$$$$$$oooooooo....++++XXXXOOOO####....        ",
"                ....OOOO........&&&&&&&&oooo####....            ",
"                ....OOOO........&&&&&&&&oooo####....            ",
"                ....OOOO........&&&&&&&&oooo####....            ",
"                ....OOOO........&&&&&&&&oooo####....            ",
"                    ................oooooooooooo....            ",
"                    ................oooooooooooo....            ",
"                    ................oooooooooooo....            ",
"                    ................oooooooooooo....            ",
"                                    ............                ",
"                                    ............                ",
"                                    ............                ",
"                                    ............                ",
"                                                                ",
"                                                                ",
"                                                                ",
"                                                                "
};
