/* XPM */
static char *_e271d556dce4708ea0493552ddfc572ITWMq93YBYFaUPol[] = {
/* columns rows colors chars-per-pixel */
"64 64 4 1 ",
"  c None",
". c black",
"X c #F83808",
"o c #F89850",
/* pixels */
"                    ........................                    ",
"                    ........................                    ",
"                    ........................                    ",
"                    ........................                    ",
"                ....XXXXXXXXXXXXXXXXXXXXXXXX....                ",
"                ....XXXXXXXXXXXXXXXXXXXXXXXX....                ",
"                ....XXXXXXXXXXXXXXXXXXXXXXXX....                ",
"                ....XXXXXXXXXXXXXXXXXXXXXXXX....                ",
"            ....XXXXXXXXXXXXXXXXXXXXXXXXXXXXXXXX....            ",
"            ....XXXXXXXXXXXXXXXXXXXXXXXXXXXXXXXX....            ",
"            ....XXXXXXXXXXXXXXXXXXXXXXXXXXXXXXXX....            ",
"            ....XXXXXXXXXXXXXXXXXXXXXXXXXXXXXXXX....            ",
"            ....XXXXXXXXXXXX........XXXXXXXXXXXX....            ",
"            ....XXXXXXXXXXXX........XXXXXXXXXXXX....            ",
"            ....XXXXXXXXXXXX........XXXXXXXXXXXX....            ",
"            ....XXXXXXXXXXXX........XXXXXXXXXXXX....            ",
"        ........XXXXXXXX................XXXXXXXX........        ",
"        ........XXXXXXXX................XXXXXXXX........        ",
"        ........XXXXXXXX................XXXXXXXX........        ",
"        ........XXXXXXXX................XXXXXXXX........        ",
"        ................XXXXXXXXXXXXXXXX................        ",
"        ................XXXXXXXXXXXXXXXX................        ",
"        ................XXXXXXXXXXXXXXXX................        ",
"        ................XXXXXXXXXXXXXXXX................        ",
"    ....oooo....oooooooooooooooooooooooooooooooo....oooo....    ",
"    ....oooo....oooooooooooooooooooooooooooooooo....oooo....    ",
"    ....oooo....oooooooooooooooooooooooooooooooo....oooo....    ",
"    ....oooo....oooooooooooooooooooooooooooooooo....oooo....    ",
"    ....oooooooooooooooo....oooooooo....oooooooooooooooo....    ",
"    ....oooooooooooooooo....oooooooo....oooooooooooooooo....    ",
"    ....oooooooooooooooo....oooooooo....oooooooooooooooo....    ",
"    ....oooooooooooooooo....oooooooo....oooooooooooooooo....    ",
"    ............oooooooo....oooooooo....oooooooo........        ",
"    ............oooooooo....oooooooo....oooooooo........        ",
"    ............oooooooo....oooooooo....oooooooo........        ",
"    ............oooooooo....oooooooo....oooooooo........        ",
"    ....oooo........ooooooooXXXXXXXXoooooooo............        ",
"    ....oooo........ooooooooXXXXXXXXoooooooo............        ",
"    ....oooo........ooooooooXXXXXXXXoooooooo............        ",
"    ....oooo........ooooooooXXXXXXXXoooooooo............        ",
"        ........oooo............................XXXX....        ",
"        ........oooo............................XXXX....        ",
"        ........oooo............................XXXX....        ",
"        ........oooo............................XXXX....        ",
"            ........XXXXXXXXoooooooo....oooooooo....            ",
"            ........XXXXXXXXoooooooo....oooooooo....            ",
"            ........XXXXXXXXoooooooo....oooooooo....            ",
"            ........XXXXXXXXoooooooo....oooooooo....            ",
"                ............XXXXXXXX....oooooooo....            ",
"                ............XXXXXXXX....oooooooo....            ",
"                ............XXXXXXXX....oooooooo....            ",
"                ............XXXXXXXX....oooooooo....            ",
"                ....XXXXXXXX....................                ",
"                ....XXXXXXXX....................                ",
"                ....XXXXXXXX....................                ",
"                ....XXXXXXXX....................                ",
"                    ............                                ",
"                    ............                                ",
"                    ............                                ",
"                    ............                                ",
"                                                                ",
"                                                                ",
"                                                                ",
"                                                                "
};
