/* XPM */
static char *_4fcd0d01a9d46d0fe785bfd21333daaD5FF6wxu5rzlCTk0[] = {
/* columns rows colors chars-per-pixel */
"64 128 14 1 ",
"  c None",
". c black",
"X c #682828",
"o c #383878",
"O c #784040",
"+ c #C03838",
"@ c #F86848",
"# c #B89838",
"$ c #D89070",
"% c #F8D858",
"& c #70A0C0",
"* c #F8C090",
"= c #B0B0D0",
"- c #E8E8F8",
/* pixels */
"                                                                ",
"                                                                ",
"                                                                ",
"                                                                ",
"                                                                ",
"                                                                ",
"                                                                ",
"                                                                ",
"                                                                ",
"                                                                ",
"                                                                ",
"                                                                ",
"                                                                ",
"                                                                ",
"                                                                ",
"                                                                ",
"                                                                ",
"                                                                ",
"                                                                ",
"                                                                ",
"                                                                ",
"                                                                ",
"                                                                ",
"                                                                ",
"                                                                ",
"                                                                ",
"                                                                ",
"                                                                ",
"                                                                ",
"                                                                ",
"                                                                ",
"                                                                ",
"                                                                ",
"                                                                ",
"                                                                ",
"                                                                ",
"                                                                ",
"                                                                ",
"                                                                ",
"                                                                ",
"                                                                ",
"                                                                ",
"                                                                ",
"                                                                ",
"                                                                ",
"                                                                ",
"                                                                ",
"                                                                ",
"                                                                ",
"                                                                ",
"                                                                ",
"                                                                ",
"                XXXXXXXXXXXXXXXXXXXXXXXXXXXXXXXX                ",
"                XXXXXXXXXXXXXXXXXXXXXXXXXXXXXXXX                ",
"                XXXXXXXXXXXXXXXXXXXXXXXXXXXXXXXX                ",
"                XXXXXXXXXXXXXXXXXXXXXXXXXXXXXXXX                ",
"            XXXX++++@@@@@@@@@@@@@@@@@@@@@@@@++++XXXX            ",
"            XXXX++++@@@@@@@@@@@@@@@@@@@@@@@@++++XXXX            ",
"            XXXX++++@@@@@@@@@@@@@@@@@@@@@@@@++++XXXX            ",
"            XXXX++++@@@@@@@@@@@@@@@@@@@@@@@@++++XXXX            ",
"        XXXX++++@@@@@@@@@@@@@@@@@@@@@@@@@@@@@@@@XXXX            ",
"        XXXX++++@@@@@@@@@@@@@@@@@@@@@@@@@@@@@@@@XXXX            ",
"        XXXX++++@@@@@@@@@@@@@@@@@@@@@@@@@@@@@@@@XXXX            ",
"        XXXX++++@@@@@@@@@@@@@@@@@@@@@@@@@@@@@@@@XXXX            ",
"    XXXXXXXX----@@@@@@@@@@@@@@@@@@@@@@@@@@@@@@@@++++XXXX        ",
"    XXXXXXXX----@@@@@@@@@@@@@@@@@@@@@@@@@@@@@@@@++++XXXX        ",
"    XXXXXXXX----@@@@@@@@@@@@@@@@@@@@@@@@@@@@@@@@++++XXXX        ",
"    XXXXXXXX----@@@@@@@@@@@@@@@@@@@@@@@@@@@@@@@@++++XXXX        ",
"....----XXXX----++++@@@@@@@@@@@@@@@@@@@@@@@@++++++++XXXX        ",
"....----XXXX----++++@@@@@@@@@@@@@@@@@@@@@@@@++++++++XXXX        ",
"....----XXXX----++++@@@@@@@@@@@@@@@@@@@@@@@@++++++++XXXX        ",
"....----XXXX----++++@@@@@@@@@@@@@@@@@@@@@@@@++++++++XXXX        ",
"....----++++====++++++++++++++++++++++++++++++++++++XXXX        ",
"....----++++====++++++++++++++++++++++++++++++++++++XXXX        ",
"....----++++====++++++++++++++++++++++++++++++++++++XXXX        ",
"....----++++====++++++++++++++++++++++++++++++++++++XXXX        ",
"....----====++++++++++++++++++++++++++++++++++++XXXX....        ",
"....----====++++++++++++++++++++++++++++++++++++XXXX....        ",
"....----====++++++++++++++++++++++++++++++++++++XXXX....        ",
"....----====++++++++++++++++++++++++++++++++++++XXXX....        ",
"    ....============++++++++++++++++++++XXXXXXXXOOOO....        ",
"    ....============++++++++++++++++++++XXXXXXXXOOOO....        ",
"    ....============++++++++++++++++++++XXXXXXXXOOOO....        ",
"    ....============++++++++++++++++++++XXXXXXXXOOOO....        ",
"        OOOOooooXXXXXXXXXXXXXXXXXXXXXXXXOOOOOOOOOOOO....        ",
"        OOOOooooXXXXXXXXXXXXXXXXXXXXXXXXOOOOOOOOOOOO....        ",
"        OOOOooooXXXXXXXXXXXXXXXXXXXXXXXXOOOOOOOOOOOO....        ",
"        OOOOooooXXXXXXXXXXXXXXXXXXXXXXXXOOOOOOOOOOOO....        ",
"        OOOO$$$$$$$$....$$$$$$$$OOOO****$$$$OOOO....            ",
"        OOOO$$$$$$$$....$$$$$$$$OOOO****$$$$OOOO....            ",
"        OOOO$$$$$$$$....$$$$$$$$OOOO****$$$$OOOO....            ",
"        OOOO$$$$$$$$....$$$$$$$$OOOO****$$$$OOOO....            ",
"            OOOO****OOOO****$$$$$$$$****$$$$....                ",
"            OOOO****OOOO****$$$$$$$$****$$$$....                ",
"            OOOO****OOOO****$$$$$$$$****$$$$....                ",
"            OOOO****OOOO****$$$$$$$$****$$$$....                ",
"                OOOO$$$$$$$$$$$$$$$$OOOOOOOO####....            ",
"                OOOO$$$$$$$$$$$$$$$$OOOOOOOO####....            ",
"                OOOO$$$$$$$$$$$$$$$$OOOOOOOO####....            ",
"                OOOO$$$$$$$$$$$$$$$$OOOOOOOO####....            ",
"                XXXXOOOOOOOO....oooooooo####%%%%%%%%....        ",
"                XXXXOOOOOOOO....oooooooo####%%%%%%%%....        ",
"                XXXXOOOOOOOO....oooooooo####%%%%%%%%....        ",
"                XXXXOOOOOOOO....oooooooo####%%%%%%%%....        ",
"                XXXX++++++++oooooooo********OOOOOOOO....        ",
"                XXXX++++++++oooooooo********OOOOOOOO....        ",
"                XXXX++++++++oooooooo********OOOOOOOO....        ",
"                XXXX++++++++oooooooo********OOOOOOOO....        ",
"                ........++++....oooo$$$$$$$$OOOO####....        ",
"                ........++++....oooo$$$$$$$$OOOO####....        ",
"                ........++++....oooo$$$$$$$$OOOO####....        ",
"                ........++++....oooo$$$$$$$$OOOO####....        ",
"            ....oooo........&&&&........OOOOOOOO....            ",
"            ....oooo........&&&&........OOOOOOOO....            ",
"            ....oooo........&&&&........OOOOOOOO....            ",
"            ....oooo........&&&&........OOOOOOOO....            ",
"            ........++++oooo....................                ",
"            ........++++oooo....................                ",
"            ........++++oooo....................                ",
"            ........++++oooo....................                ",
"                ............                                    ",
"                ............                                    ",
"                ............                                    ",
"                ............                                    ",
"                                                                ",
"                                                                ",
"                                                                ",
"                                                                "
};
