/* XPM */
static char *_d0f21458d2340f3e88dbdc3d1147c330ztpPgUvmmVHFdzM[] = {
/* columns rows colors chars-per-pixel */
"64 128 12 1 ",
"  c None",
". c black",
"X c #383818",
"o c #484858",
"O c #784040",
"+ c #904028",
"@ c #E07050",
"# c #D89870",
"$ c #889090",
"% c #F0C098",
"& c #C0C8D8",
"* c #FFFDFD",
/* pixels */
"                                                                ",
"                                                                ",
"                                                                ",
"                                                                ",
"                                                                ",
"                                                                ",
"                                                                ",
"                                                                ",
"                                                                ",
"                                                                ",
"                                                                ",
"                                                                ",
"                                                                ",
"                                                                ",
"                                                                ",
"                                                                ",
"                                                                ",
"                                                                ",
"                                                                ",
"                                                                ",
"                                                                ",
"                                                                ",
"                                                                ",
"                                                                ",
"                                                                ",
"                                                                ",
"                                                                ",
"                                                                ",
"                                                                ",
"                                                                ",
"                                                                ",
"                                                                ",
"                                                                ",
"                                                                ",
"                                                                ",
"                                                                ",
"                                                                ",
"                                                                ",
"                                                                ",
"                                                                ",
"                                                                ",
"                                                                ",
"                                                                ",
"                                                                ",
"                        oooooooooooooooo                        ",
"                        oooooooooooooooo                        ",
"                        oooooooooooooooo                        ",
"                        oooooooooooooooo                        ",
"                XXXXXXXX$$$$$$$$$$$$$$$$XXXXXXXX                ",
"                XXXXXXXX$$$$$$$$$$$$$$$$XXXXXXXX                ",
"                XXXXXXXX$$$$$$$$$$$$$$$$XXXXXXXX                ",
"                XXXXXXXX$$$$$$$$$$$$$$$$XXXXXXXX                ",
"            XXXXoooo$$$$$$$$$$$$$$$$$$$$$$$$ooooXXXX            ",
"            XXXXoooo$$$$$$$$$$$$$$$$$$$$$$$$ooooXXXX            ",
"            XXXXoooo$$$$$$$$$$$$$$$$$$$$$$$$ooooXXXX            ",
"            XXXXoooo$$$$$$$$$$$$$$$$$$$$$$$$ooooXXXX            ",
"        ....oooooooo$$$$$$$$$$$$$$$$$$$$$$$$oooooooo....        ",
"        ....oooooooo$$$$$$$$$$$$$$$$$$$$$$$$oooooooo....        ",
"        ....oooooooo$$$$$$$$$$$$$$$$$$$$$$$$oooooooo....        ",
"        ....oooooooo$$$$$$$$$$$$$$$$$$$$$$$$oooooooo....        ",
"        ....oooooooooooo$$$$$$$$$$$$$$$$oooooooooooo....        ",
"        ....oooooooooooo$$$$$$$$$$$$$$$$oooooooooooo....        ",
"        ....oooooooooooo$$$$$$$$$$$$$$$$oooooooooooo....        ",
"        ....oooooooooooo$$$$$$$$$$$$$$$$oooooooooooo....        ",
"        ....oooooooooooooooooooooooooooooooooooooooo....        ",
"        ....oooooooooooooooooooooooooooooooooooooooo....        ",
"        ....oooooooooooooooooooooooooooooooooooooooo....        ",
"        ....oooooooooooooooooooooooooooooooooooooooo....        ",
"    ....####....XXXXXXXXXXXXXXXXXXXXXXXXXXXXXXXX....####....    ",
"    ....####....XXXXXXXXXXXXXXXXXXXXXXXXXXXXXXXX....####....    ",
"    ....####....XXXXXXXXXXXXXXXXXXXXXXXXXXXXXXXX....####....    ",
"    ....####....XXXXXXXXXXXXXXXXXXXXXXXXXXXXXXXX....####....    ",
"    ....%%%%........$$$$$$$$$$$$$$$$$$$$$$$$........%%%%....    ",
"    ....%%%%........$$$$$$$$$$$$$$$$$$$$$$$$........%%%%....    ",
"    ....%%%%........$$$$$$$$$$$$$$$$$$$$$$$$........%%%%....    ",
"    ....%%%%........$$$$$$$$$$$$$$$$$$$$$$$$........%%%%....    ",
"        ........####oooo....oooooooo....oooo####........        ",
"        ........####oooo....oooooooo....oooo####........        ",
"        ........####oooo....oooooooo....oooo####........        ",
"        ........####oooo....oooooooo....oooo####........        ",
"            ....%%%%####....########....####%%%%....            ",
"            ....%%%%####....########....####%%%%....            ",
"            ....%%%%####....########....####%%%%....            ",
"            ....%%%%####....########....####%%%%....            ",
"            ....####%%%%%%%%%%%%%%%%%%%%%%%%####....            ",
"            ....####%%%%%%%%%%%%%%%%%%%%%%%%####....            ",
"            ....####%%%%%%%%%%%%%%%%%%%%%%%%####....            ",
"            ....####%%%%%%%%%%%%%%%%%%%%%%%%####....            ",
"        ....$$$$ooooOOOO################OOOOoooo$$$$....        ",
"        ....$$$$ooooOOOO################OOOOoooo$$$$....        ",
"        ....$$$$ooooOOOO################OOOOoooo$$$$....        ",
"        ....$$$$ooooOOOO################OOOOoooo$$$$....        ",
"    ....oooo$$$$....oooo................oooo....$$$$oooo....    ",
"    ....oooo$$$$....oooo................oooo....$$$$oooo....    ",
"    ....oooo$$$$....oooo................oooo....$$$$oooo....    ",
"    ....oooo$$$$....oooo................oooo....$$$$oooo....    ",
"    oooo****oooo....$$$$@@@@++++++++@@@@$$$$....oooo****oooo    ",
"    oooo****oooo....$$$$@@@@++++++++@@@@$$$$....oooo****oooo    ",
"    oooo****oooo....$$$$@@@@++++++++@@@@$$$$....oooo****oooo    ",
"    oooo****oooo....$$$$@@@@++++++++@@@@$$$$....oooo****oooo    ",
"    oooo&&&&&&&&XXXX$$$$@@@@@@@@@@@@++++$$$$XXXX&&&&&&&&oooo    ",
"    oooo&&&&&&&&XXXX$$$$@@@@@@@@@@@@++++$$$$XXXX&&&&&&&&oooo    ",
"    oooo&&&&&&&&XXXX$$$$@@@@@@@@@@@@++++$$$$XXXX&&&&&&&&oooo    ",
"    oooo&&&&&&&&XXXX$$$$@@@@@@@@@@@@++++$$$$XXXX&&&&&&&&oooo    ",
"        ............oooo@@@@++++++++@@@@oooo............        ",
"        ............oooo@@@@++++++++@@@@oooo............        ",
"        ............oooo@@@@++++++++@@@@oooo............        ",
"        ............oooo@@@@++++++++@@@@oooo............        ",
"            XXXXoooo........oooooooo........ooooXXXX            ",
"            XXXXoooo........oooooooo........ooooXXXX            ",
"            XXXXoooo........oooooooo........ooooXXXX            ",
"            XXXXoooo........oooooooo........ooooXXXX            ",
"            ........oooooooo........oooooooo........            ",
"            ........oooooooo........oooooooo........            ",
"            ........oooooooo........oooooooo........            ",
"            ........oooooooo........oooooooo........            ",
"            ....&&&&&&&&....        ....&&&&&&&&....            ",
"            ....&&&&&&&&....        ....&&&&&&&&....            ",
"            ....&&&&&&&&....        ....&&&&&&&&....            ",
"            ....&&&&&&&&....        ....&&&&&&&&....            ",
"                ........                ........                ",
"                ........                ........                ",
"                ........                ........                ",
"                ........                ........                ",
"                                                                ",
"                                                                ",
"                                                                ",
"                                                                "
};
