/* XPM */
static char *c08895d1f324471fbb3f4cdb35021ee8VFRwQ1uKD3rNOuQc[] = {
/* columns rows colors chars-per-pixel */
"64 128 12 1 ",
"  c None",
". c black",
"X c #383818",
"o c #484858",
"O c #784040",
"+ c #904028",
"@ c #E07050",
"# c #D89870",
"$ c #889090",
"% c #F0C098",
"& c #C0C8D8",
"* c #FFFDFD",
/* pixels */
"                                                                ",
"                                                                ",
"                                                                ",
"                                                                ",
"                                                                ",
"                                                                ",
"                                                                ",
"                                                                ",
"                                                                ",
"                                                                ",
"                                                                ",
"                                                                ",
"                                                                ",
"                                                                ",
"                                                                ",
"                                                                ",
"                                                                ",
"                                                                ",
"                                                                ",
"                                                                ",
"                                                                ",
"                                                                ",
"                                                                ",
"                                                                ",
"                                                                ",
"                                                                ",
"                                                                ",
"                                                                ",
"                                                                ",
"                                                                ",
"                                                                ",
"                                                                ",
"                                                                ",
"                                                                ",
"                                                                ",
"                                                                ",
"                                                                ",
"                                                                ",
"                                                                ",
"                                                                ",
"                                                                ",
"                                                                ",
"                                                                ",
"                                                                ",
"                                                                ",
"                                                                ",
"                                                                ",
"                                                                ",
"                        oooooooooooooooo                        ",
"                        oooooooooooooooo                        ",
"                        oooooooooooooooo                        ",
"                        oooooooooooooooo                        ",
"                XXXXXXXX$$$$$$$$$$$$$$$$XXXXXXXX                ",
"                XXXXXXXX$$$$$$$$$$$$$$$$XXXXXXXX                ",
"                XXXXXXXX$$$$$$$$$$$$$$$$XXXXXXXX                ",
"                XXXXXXXX$$$$$$$$$$$$$$$$XXXXXXXX                ",
"            XXXXoooo$$$$$$$$$$$$$$$$$$$$$$$$ooooXXXX            ",
"            XXXXoooo$$$$$$$$$$$$$$$$$$$$$$$$ooooXXXX            ",
"            XXXXoooo$$$$$$$$$$$$$$$$$$$$$$$$ooooXXXX            ",
"            XXXXoooo$$$$$$$$$$$$$$$$$$$$$$$$ooooXXXX            ",
"        ....oooooooo$$$$$$$$$$$$$$$$$$$$$$$$oooooooo....        ",
"        ....oooooooo$$$$$$$$$$$$$$$$$$$$$$$$oooooooo....        ",
"        ....oooooooo$$$$$$$$$$$$$$$$$$$$$$$$oooooooo....        ",
"        ....oooooooo$$$$$$$$$$$$$$$$$$$$$$$$oooooooo....        ",
"        ....oooooooooooo$$$$$$$$$$$$$$$$oooooooooooo....        ",
"        ....oooooooooooo$$$$$$$$$$$$$$$$oooooooooooo....        ",
"        ....oooooooooooo$$$$$$$$$$$$$$$$oooooooooooo....        ",
"        ....oooooooooooo$$$$$$$$$$$$$$$$oooooooooooo....        ",
"        ....oooooooooooooooooooooooooooooooooooooooo....        ",
"        ....oooooooooooooooooooooooooooooooooooooooo....        ",
"        ....oooooooooooooooooooooooooooooooooooooooo....        ",
"        ....oooooooooooooooooooooooooooooooooooooooo....        ",
"    ....####....XXXXXXXXXXXXXXXXXXXXXXXXXXXXXXXX....####....    ",
"    ....####....XXXXXXXXXXXXXXXXXXXXXXXXXXXXXXXX....####....    ",
"    ....####....XXXXXXXXXXXXXXXXXXXXXXXXXXXXXXXX....####....    ",
"    ....####....XXXXXXXXXXXXXXXXXXXXXXXXXXXXXXXX....####....    ",
"    ....%%%%........$$$$$$$$$$$$$$$$$$$$$$$$........%%%%....    ",
"    ....%%%%........$$$$$$$$$$$$$$$$$$$$$$$$........%%%%....    ",
"    ....%%%%........$$$$$$$$$$$$$$$$$$$$$$$$........%%%%....    ",
"    ....%%%%........$$$$$$$$$$$$$$$$$$$$$$$$........%%%%....    ",
"        ........####oooo....oooooooo....oooo####........        ",
"        ........####oooo....oooooooo....oooo####........        ",
"        ........####oooo....oooooooo....oooo####........        ",
"        ........####oooo....oooooooo....oooo####........        ",
"            ....%%%%####....########....####%%%%....            ",
"            ....%%%%####....########....####%%%%....            ",
"            ....%%%%####....########....####%%%%....            ",
"            ....%%%%####....########....####%%%%....            ",
"            ....####%%%%%%%%%%%%%%%%%%%%%%%%####....oooooooo    ",
"            ....####%%%%%%%%%%%%%%%%%%%%%%%%####....oooooooo    ",
"            ....####%%%%%%%%%%%%%%%%%%%%%%%%####....oooooooo    ",
"            ....####%%%%%%%%%%%%%%%%%%%%%%%%####....oooooooo    ",
"            ooooooooOOOO################OOOOoooo$$$$$$$$&&&&oooo",
"            ooooooooOOOO################OOOOoooo$$$$$$$$&&&&oooo",
"            ooooooooOOOO################OOOOoooo$$$$$$$$&&&&oooo",
"            ooooooooOOOO################OOOOoooo$$$$$$$$&&&&oooo",
"        oooo$$$$$$$$oooo................oooo....$$$$$$$$&&&&oooo",
"        oooo$$$$$$$$oooo................oooo....$$$$$$$$&&&&oooo",
"        oooo$$$$$$$$oooo................oooo....$$$$$$$$&&&&oooo",
"        oooo$$$$$$$$oooo................oooo....$$$$$$$$&&&&oooo",
"        oooo$$$$$$$$oooo@@@@++++++++@@@@$$$$....oooo........    ",
"        oooo$$$$$$$$oooo@@@@++++++++@@@@$$$$....oooo........    ",
"        oooo$$$$$$$$oooo@@@@++++++++@@@@$$$$....oooo........    ",
"        oooo$$$$$$$$oooo@@@@++++++++@@@@$$$$....oooo........    ",
"        oooo********oooo++++@@@@@@@@@@@@$$$$XXXX....            ",
"        oooo********oooo++++@@@@@@@@@@@@$$$$XXXX....            ",
"        oooo********oooo++++@@@@@@@@@@@@$$$$XXXX....            ",
"        oooo********oooo++++@@@@@@@@@@@@$$$$XXXX....            ",
"        oooo&&&&&&&&oooo@@@@++++++++@@@@oooo........            ",
"        oooo&&&&&&&&oooo@@@@++++++++@@@@oooo........            ",
"        oooo&&&&&&&&oooo@@@@++++++++@@@@oooo........            ",
"        oooo&&&&&&&&oooo@@@@++++++++@@@@oooo........            ",
"            ................oooooooo........oooo....            ",
"            ................oooooooo........oooo....            ",
"            ................oooooooo........oooo....            ",
"            ................oooooooo........oooo....            ",
"                    ................oooooooo....                ",
"                    ................oooooooo....                ",
"                    ................oooooooo....                ",
"                    ................oooooooo....                ",
"                            ....&&&&********....                ",
"                            ....&&&&********....                ",
"                            ....&&&&********....                ",
"                            ....&&&&********....                ",
"                                ............                    ",
"                                ............                    ",
"                                ............                    ",
"                                ............                    "
};
