/* XPM */
static char *_cac7acf887741f6926103018f9bd6c64RWWu3zJgpdvR3ki[] = {
/* columns rows colors chars-per-pixel */
"64 64 25 1 ",
"  c #3C4567",
". c #3D4567",
"X c #3D4667",
"o c #3D4668",
"O c #C84E45",
"+ c #C94E45",
"@ c #C94E46",
"# c #D8675E",
"$ c #D8675F",
"% c #D9675F",
"& c #D9685F",
"* c #777780",
"= c #787880",
"- c #787881",
"; c #90A0B0",
": c #90A0B1",
"> c #90A1B1",
", c #91A1B1",
"< c #A8B8C8",
"1 c #A8B9C8",
"2 c #A8B9C9",
"3 c #A9B9C9",
"4 c #F0F0F8",
"5 c #F1F1F8",
"6 c #F1F1F9",
/* pixels */
"33333333.....   XXX.....3333333333333333    ............33333<<<",
"33333333.....   ooXX....3333333333333333    ............33333<<<",
"33333333....    oooo....3333333333333333    ............333333<<",
"33333333....    oooo....3333333333333333    ............3333333<",
"ooooooooXXXX>>>>::,,oooo....................>>::>>,,XX..........",
"ooooooooXXXX>>>>::,,oooo....................>:::>>,,XX..........",
"ooooooooXXXX,,>>::::oooo............  ......>>::>>>>XXX.........",
"ooooooooXXXX,,>>::::oooo............  ......>>::>>>>XX..........",
"    44445544444444444444444466554444555555554444444444444455XXX.",
"    44445544444444444444444466654444555555554444444444444455XX..",
"..  44445555444444444444444466554444555555554444444444444555  ..",
"..  44445555444444444444444466554444555555554444444444444555   .",
"....44445555555544444444666644444444555555555555444444444455.XXX",
"....44445555555544444444666644444444555555555555444444444555..oX",
"....44445555665544444444666644444444555555555555444444444455oooo",
"....44445555666644444444666644444444555555555555444444444455oooo",
"..XX33333333333333<<3333<<<<333333333333<<<<33332222<<<<3333o...",
"..oo33333333333333<<3333<<<<333333333333<<<<33332222<<<<3333..  ",
"oooo33333333333333<<3333<<2<333333333333<<<<33332222<<<<3333    ",
"oooo33333333333333<<33332<2<333333333333<<<<33332222<<<<3333    ",
"oooo3333++++@@@@OOOO++++3333333333333333@OOOOOOOOO@@O@@@3333....",
"oooo3333++++@@@@OOOO++++3333333333333333@OOOOOOOOO@@@@OO3333....",
"oooo3333++++@@@@OO++++++3333333333333333OO@@OOOOO@@@@OOO3333....",
"oooo3333++++@@@@OO++++++3333333333333333OOOOOOOOO@@@@@OO333<....",
"....33333333@@@@3333333333333333%%$$333333332<<<@@@@33333333....",
"....33333333@@@@3333333333333333%%$$33333333<<<<@@@@33333333....",
"....33333333@@++3333333333333333%$#$33333333<<<<@@@@33333333....",
"....33333333++++3333333333333333%$#$33333333<<<<@@@@33333333....",
"....3333%%%%++++3333++@@3333OOOO@@++3333OOOO3333@@@@####3333.ooo",
"....3333%%%%++++3333++@@3333OOOO@@++3333OOOO3333@@@@####3333.ooo",
"....3333%%%%++++3333++@@3333OOOO@@++3333OOOO3333@@@@####3333oooo",
"....3333%%%%++++3333++@@3333OOOO@@++3333OOOO3333@@@@###$3333oooo",
"   .33333333%%%%3333&&&&3331111<%%%%3333%%%%33<<%$%%33333333o...",
"   .33333333%%%&3333&&&&3331111<%%%%3333%%%%<3<<$$%%33333333....",
"  ..33333333%%&&3333&&&&331111<<%%%%3333%%$#<<<<&&%%33333333....",
"  ..33333333%%&&3333&&&&331111<3%%%%3333%$$#<<<<&&&&33333333....",
"    33333333333311113333333333333333333333333333332222<<3333    ",
"    333333<<3333111133333333333333333333333333333322<<<<3333    ",
"    3333<<<<3311111133333333333233333333333333333222<<<<3333    ",
"    3333<<<<1111111133333333333233333333333333333222<<<<3333    ",
"..oo-=======>>>>,,,,,,,,********----=======*::::;;,,>>>>**==.ooo",
"o oo-=======>>>>,,,,,,,,********--========**::::;;;,>>>>--==.ooo",
"oooo======-->>>>,,,,,,,,***=****========****>:;;;;,,,,>>====oooo",
"oooo====---->>>>>,,,,,,,***-****========****;;;;;;,,,,>>====oooo",
"....33333333333333333333333333333333333333333333333311113333....",
"....33333333333333333333333333333333333333333333333311113333....",
"....33333333333333333333333333333333333333333333333311<33333....",
"....333333333333333333333333333233333333333333333333<<<33333....",
".       ooXX        oooo....oooo    ............ ...........XXXX",
"          X.        oooo....oooo    ............ .XXXX......XXXX",
"      oo ...        oooo....oooo    ..  ........ooXoXXXX....XXXX",
"      ......        oooo....ooo     ..  ........ooooXXXX....XXXX",
"*=--=***XXX.>>>>....---=-===========****====....>>,,oooo====----",
"==--****XXX.>>;;....---=============****====....>>,,oooo====----",
"=---****XX..;;;;..oo--==============**======....>,,,oooo====----",
"----****XX..;;;;.ooX--======================....,,,,oooo==------",
"========....XXXXXXXX============****========..  ooo     ========",
"========....XXooXXXX============****========    ooo     ========",
"========....ooooXX..============****========    oo .  ..========",
"========....oooo....============****========    oo .  ..========",
"============-===============================****----====**======",
"==============**============================****--======**======",
"============****============================****========**======",
"============****============================**==========**======"
};
