/* XPM */
static char *_51757a60e0e45c9d9f53f90bc2cfcb1mpzJTNuwYHizkNyS[] = {
/* columns rows colors chars-per-pixel */
"64 64 5 1 ",
"  c None",
". c black",
"X c #383818",
"o c #787040",
"O c #C8A860",
/* pixels */
"                                                                ",
"                                                                ",
"                                                                ",
"                                                                ",
"                        XXXXXXXXXXXX                            ",
"                        XXXXXXXXXXXX                            ",
"                        XXXXXXXXXXXX                            ",
"                        XXXXXXXXXXXX                            ",
"                XXXXXXXXXXXXOOOOOOOOXXXXXXXX                    ",
"                XXXXXXXXXXXXOOOOOOOOXXXXXXXX                    ",
"                XXXXXXXXXXXXOOOOOOOOXXXXXXXX                    ",
"                XXXXXXXXXXXXOOOOOOOOXXXXXXXX                    ",
"            XXXXXXXXXXXXOOOOOOOOOOOOOOOOooooXXXX                ",
"            XXXXXXXXXXXXOOOOOOOOOOOOOOOOooooXXXX                ",
"            XXXXXXXXXXXXOOOOOOOOOOOOOOOOooooXXXX                ",
"            XXXXXXXXXXXXOOOOOOOOOOOOOOOOooooXXXX                ",
"        XXXXooooOOOOXXXXOOOOOOOOOOOOooooooooXXXX....            ",
"        XXXXooooOOOOXXXXOOOOOOOOOOOOooooooooXXXX....            ",
"        XXXXooooOOOOXXXXOOOOOOOOOOOOooooooooXXXX....            ",
"        XXXXooooOOOOXXXXOOOOOOOOOOOOooooooooXXXX....            ",
"        XXXXXXXXOOOOOOOOooooOOOOooooOOOOXXXX....oooo....        ",
"        XXXXXXXXOOOOOOOOooooOOOOooooOOOOXXXX....oooo....        ",
"        XXXXXXXXOOOOOOOOooooOOOOooooOOOOXXXX....oooo....        ",
"        XXXXXXXXOOOOOOOOooooOOOOooooOOOOXXXX....oooo....        ",
"    XXXXoooo....ooooOOOOOOOOXXXXXXXX........XXXXXXXX....        ",
"    XXXXoooo....ooooOOOOOOOOXXXXXXXX........XXXXXXXX....        ",
"    XXXXoooo....ooooOOOOOOOOXXXXXXXX........XXXXXXXX....        ",
"    XXXXoooo....ooooOOOOOOOOXXXXXXXX........XXXXXXXX....        ",
"    ....XXXX....XXXXooooOOOOooooOOOOooooXXXXooooooooXXXX....    ",
"    ....XXXX....XXXXooooOOOOooooOOOOooooXXXXooooooooXXXX....    ",
"    ....XXXX....XXXXooooOOOOooooOOOOooooXXXXooooooooXXXX....    ",
"    ....XXXX....XXXXooooOOOOooooOOOOooooXXXXooooooooXXXX....    ",
"    ....ooooOOOOXXXXXXXXooooOOOOoooo....oooooooooooo........    ",
"    ....ooooOOOOXXXXXXXXooooOOOOoooo....oooooooooooo........    ",
"    ....ooooOOOOXXXXXXXXooooOOOOoooo....oooooooooooo........    ",
"    ....ooooOOOOXXXXXXXXooooOOOOoooo....oooooooooooo........    ",
"    ....XXXXooooOOOOXXXXOOOOooooXXXX....XXXXoooo....XXXX....    ",
"    ....XXXXooooOOOOXXXXOOOOooooXXXX....XXXXoooo....XXXX....    ",
"    ....XXXXooooOOOOXXXXOOOOooooXXXX....XXXXoooo....XXXX....    ",
"    ....XXXXooooOOOOXXXXOOOOooooXXXX....XXXXoooo....XXXX....    ",
"    ....XXXXXXXXXXXX....XXXXXXXXoooooooo....XXXXXXXXXXXX....    ",
"    ....XXXXXXXXXXXX....XXXXXXXXoooooooo....XXXXXXXXXXXX....    ",
"    ....XXXXXXXXXXXX....XXXXXXXXoooooooo....XXXXXXXXXXXX....    ",
"    ....XXXXXXXXXXXX....XXXXXXXXoooooooo....XXXXXXXXXXXX....    ",
"    ....XXXXXXXX........XXXXooooXXXXXXXX........XXXXXXXX....    ",
"    ....XXXXXXXX........XXXXooooXXXXXXXX........XXXXXXXX....    ",
"    ....XXXXXXXX........XXXXooooXXXXXXXX........XXXXXXXX....    ",
"    ....XXXXXXXX........XXXXooooXXXXXXXX........XXXXXXXX....    ",
"        ....XXXX........XXXXXXXXXXXXXXXX................        ",
"        ....XXXX........XXXXXXXXXXXXXXXX................        ",
"        ....XXXX........XXXXXXXXXXXXXXXX................        ",
"        ....XXXX........XXXXXXXXXXXXXXXX................        ",
"            ................XXXXXXXX............                ",
"            ................XXXXXXXX............                ",
"            ................XXXXXXXX............                ",
"            ................XXXXXXXX............                ",
"                        ................                        ",
"                        ................                        ",
"                        ................                        ",
"                        ................                        ",
"                                                                ",
"                                                                ",
"                                                                ",
"                                                                "
};
