/* XPM */
static char *d7ddb27dd6a94c848ccf538b4c36775aifa3lI62Zm354CZT[] = {
/* columns rows colors chars-per-pixel */
"64 64 3 1 ",
"  c #356802",
". c #68CE02",
"X c #9BFF35",
/* pixels */
"....XXXX....XXXX....XXXXXXXXXXXX....XXXX....XXXX....XXXXXXXXXXXX",
"....XXXX....XXXX....XXXXXXXXXXXX....XXXX....XXXX....XXXXXXXXXXXX",
"....XXXX....XXXX....XXXXXXXXXXXX....XXXX....XXXX....XXXXXXXXXXXX",
"....XXXX....XXXX....XXXXXXXXXXXX....XXXX....XXXX....XXXXXXXXXXXX",
"XXXX....    ....XXXX....XXXX....XXXX....    ....XXXX....XXXX....",
"XXXX....    ....XXXX....XXXX....XXXX....    ....XXXX....XXXX....",
"XXXX....    ....XXXX....XXXX....XXXX....    ....XXXX....XXXX....",
"XXXX....    ....XXXX....XXXX....XXXX....    ....XXXX....XXXX....",
"....XXXX....XXXX    XXXX....XXXX....XXXX....XXXX    XXXX....XXXX",
"....XXXX....XXXX    XXXX....XXXX....XXXX....XXXX    XXXX....XXXX",
"....XXXX....XXXX    XXXX....XXXX....XXXX....XXXX    XXXX....XXXX",
"....XXXX....XXXX    XXXX....XXXX....XXXX....XXXX    XXXX....XXXX",
"XXXXXXXXXXXX....XXXX....XXXXXXXXXXXXXXXXXXXX....XXXX....XXXXXXXX",
"XXXXXXXXXXXX....XXXX....XXXXXXXXXXXXXXXXXXXX....XXXX....XXXXXXXX",
"XXXXXXXXXXXX....XXXX....XXXXXXXXXXXXXXXXXXXX....XXXX....XXXXXXXX",
"XXXXXXXXXXXX....XXXX....XXXXXXXXXXXXXXXXXXXX....XXXX....XXXXXXXX",
"....XXXX....XXXX....XXXX....XXXX....XXXX....XXXX....XXXX....XXXX",
"....XXXX....XXXX....XXXX....XXXX....XXXX....XXXX....XXXX....XXXX",
"....XXXX....XXXX....XXXX....XXXX....XXXX....XXXX....XXXX....XXXX",
"....XXXX....XXXX....XXXX....XXXX....XXXX....XXXX....XXXX....XXXX",
"XXXX....XXXX....XXXX....    ....XXXX....XXXX....XXXX....    ....",
"XXXX....XXXX....XXXX....    ....XXXX....XXXX....XXXX....    ....",
"XXXX....XXXX....XXXX....    ....XXXX....XXXX....XXXX....    ....",
"XXXX....XXXX....XXXX....    ....XXXX....XXXX....XXXX....    ....",
"XXXXXXXXXXXXXXXX....XXXX....XXXXXXXXXXXXXXXXXXXX....XXXX....XXXX",
"XXXXXXXXXXXXXXXX....XXXX....XXXXXXXXXXXXXXXXXXXX....XXXX....XXXX",
"XXXXXXXXXXXXXXXX....XXXX....XXXXXXXXXXXXXXXXXXXX....XXXX....XXXX",
"XXXXXXXXXXXXXXXX....XXXX....XXXXXXXXXXXXXXXXXXXX....XXXX....XXXX",
"XXXXXXXXXXXX....XXXX....XXXXXXXXXXXXXXXXXXXX....XXXX....XXXXXXXX",
"XXXXXXXXXXXX....XXXX....XXXXXXXXXXXXXXXXXXXX....XXXX....XXXXXXXX",
"XXXXXXXXXXXX....XXXX....XXXXXXXXXXXXXXXXXXXX....XXXX....XXXXXXXX",
"XXXXXXXXXXXX....XXXX....XXXXXXXXXXXXXXXXXXXX....XXXX....XXXXXXXX",
"....XXXX....XXXX....XXXXXXXXXXXX....XXXX....XXXX....XXXXXXXXXXXX",
"....XXXX....XXXX....XXXXXXXXXXXX....XXXX....XXXX....XXXXXXXXXXXX",
"....XXXX....XXXX....XXXXXXXXXXXX....XXXX....XXXX....XXXXXXXXXXXX",
"....XXXX....XXXX....XXXXXXXXXXXX....XXXX....XXXX....XXXXXXXXXXXX",
"XXXX....    ....XXXX....XXXX....XXXX....    ....XXXX....XXXX....",
"XXXX....    ....XXXX....XXXX....XXXX....    ....XXXX....XXXX....",
"XXXX....    ....XXXX....XXXX....XXXX....    ....XXXX....XXXX....",
"XXXX....    ....XXXX....XXXX....XXXX....    ....XXXX....XXXX....",
"....XXXX....XXXX    XXXX....XXXX....XXXX....XXXX    XXXX....XXXX",
"....XXXX....XXXX    XXXX....XXXX....XXXX....XXXX    XXXX....XXXX",
"....XXXX....XXXX    XXXX....XXXX....XXXX....XXXX    XXXX....XXXX",
"....XXXX....XXXX    XXXX....XXXX....XXXX....XXXX    XXXX....XXXX",
"XXXXXXXXXXXX....XXXX....XXXXXXXXXXXXXXXXXXXX....XXXX....XXXXXXXX",
"XXXXXXXXXXXX....XXXX....XXXXXXXXXXXXXXXXXXXX....XXXX....XXXXXXXX",
"XXXXXXXXXXXX....XXXX....XXXXXXXXXXXXXXXXXXXX....XXXX....XXXXXXXX",
"XXXXXXXXXXXX....XXXX....XXXXXXXXXXXXXXXXXXXX....XXXX....XXXXXXXX",
"....XXXX....XXXX....XXXX....XXXX....XXXX....XXXX....XXXX....XXXX",
"....XXXX....XXXX....XXXX....XXXX....XXXX....XXXX....XXXX....XXXX",
"....XXXX....XXXX....XXXX....XXXX....XXXX....XXXX....XXXX....XXXX",
"....XXXX....XXXX....XXXX....XXXX....XXXX....XXXX....XXXX....XXXX",
"XXXX....XXXX....XXXX....    ....XXXX....XXXX....XXXX....    ....",
"XXXX....XXXX....XXXX....    ....XXXX....XXXX....XXXX....    ....",
"XXXX....XXXX....XXXX....    ....XXXX....XXXX....XXXX....    ....",
"XXXX....XXXX....XXXX....    ....XXXX....XXXX....XXXX....    ....",
"XXXXXXXXXXXXXXXX....XXXX....XXXXXXXXXXXXXXXXXXXX....XXXX....XXXX",
"XXXXXXXXXXXXXXXX....XXXX....XXXXXXXXXXXXXXXXXXXX....XXXX....XXXX",
"XXXXXXXXXXXXXXXX....XXXX....XXXXXXXXXXXXXXXXXXXX....XXXX....XXXX",
"XXXXXXXXXXXXXXXX....XXXX....XXXXXXXXXXXXXXXXXXXX....XXXX....XXXX",
"XXXXXXXXXXXX....XXXX....XXXXXXXXXXXXXXXXXXXX....XXXX....XXXXXXXX",
"XXXXXXXXXXXX....XXXX....XXXXXXXXXXXXXXXXXXXX....XXXX....XXXXXXXX",
"XXXXXXXXXXXX....XXXX....XXXXXXXXXXXXXXXXXXXX....XXXX....XXXXXXXX",
"XXXXXXXXXXXX....XXXX....XXXXXXXXXXXXXXXXXXXX....XXXX....XXXXXXXX"
};
