/* XPM */
static char *_807acd94bf64c2edbfc69ea42659eecVfj19R0QYRFlDubX[] = {
/* columns rows colors chars-per-pixel */
"64 64 28 1 ",
"  c #345606",
". c #345607",
"X c #345707",
"o c #355707",
"O c #34902B",
"+ c #34912B",
"@ c #34912C",
"# c #35912C",
"$ c #10A067",
"% c #10A167",
"& c #11A168",
"* c #80D05E",
"= c #80D05F",
"- c #80D15F",
"; c #81D15F",
": c #3CB188",
"> c #3DB188",
", c #3DB189",
"< c #6FC8A0",
"1 c #6FC9A0",
"2 c #6FC9A1",
"3 c #70C9A1",
"4 c #B8F888",
"5 c #B9F888",
"6 c #B9F889",
"7 c #B9F989",
"8 c #88D9B9",
"9 c #89D9B9",
/* pixels */
"<<<<33333333<<<<2222333311112222<211<<<<<<<<<<<<<<<<333322223333",
"<<<<33333333<<<<222233331111<<222222<<<<<<<<<<<<<<<<333322223333",
"<<<<3333333322<<222233331111<<<<2<22<<<<<<<<<<<<<<<<333322223333",
"<<<<333333332222222233331111<<<<2222<<<<<<<<<<<<<<<<333322223333",
"33333333333322223333<<<<##@@++OO@@@@++++99883333<<33<<22<<<<3333",
"33333333333322223333<<<<++@@++OO@@@@++++998833333333<<22<<<<3333",
"3333333333332222333322<<@@@@++++@@@@OO++999933333333<<<2<<<<3333",
"3333333333332222333322<<@@@@++++@@++OO++999933333333<<<2<<<<3333",
"33332<<<22223333###+++OO5555----====5555OOOOOOOO3333999922113333",
"33332<<<22223333#O#+++OO5555----====5555OOOOOOOO3333999911113333",
"333322<<22223333#O#O++++5555------==5555OOOOOOOO3333999911113333",
"333322<<22223333###O++++5555------==5555OOOOOOOO3333999911113333",
"2222<<<<3333@@@@7777555577777777777774555555;;;;#+++333333333333",
"2222<<<<3333@@@@7777555577777777777744555555;;;;#+++333333333333",
"1122<<<<3333OO@@7777555577775555744444555555;;;;++++333333333333",
"1122<<<<3333OOOO7777555577775555774444555555;;;;++++333333333333",
"33332222++OO==--77777444555544445555444466655544----####33<<<<<<",
"33332222++OO==--77774444555544445555444466655544----####33<<<<<<",
"33332222++++====74445555555544445555444466555544;;--####333<22<<",
"33332222++++====77445555555544445555444466555544;;--####333<2222",
"33333333++@@--------55554444----;;;;66665555****----OOOO<<<<<<<<",
"33333333##@@--------55554444----;;;;66665555****----OOOO<<<<<<<<",
"33333333####--------55554444----**;;66665555;;;;----OOOO<<<<<<<<",
"33333333####--------55554444----****66665555;;;;----OOOO<<<<<<<<",
"3333OOOO----####55555555555555556666664455555555OOOO----##@@<<<<",
"3333OOOO----####55555555555555556666664455555555OOOO----++@@<<<<",
"3333OOOO****OOOO55555555555555556666544455555555OOOO----+@@@<<<<",
"3333OOOO****OOOO55555555555555556666544455555555OOOO----+@@@<<<<",
"3333----OOOO----44444444444455557777677755557777----OOOO----::::",
"3333----OOOO----44444444444455557777777755557777----OOOO----::::",
"3333----OOOO----44444444444455557777777755566677----OOOO---->>::",
"3333----OOOO----44444444444455557777777755566677----OOOO---->>::",
"<<<1oooo---=++++----77777777====;;**44447777----++++****  XX%%%%",
"<<<1oooo---=++++----77777777====;;**44447777----++++==**  XX%%$$",
"<<33oooo;;==++++----77777777====;;**55557777----OO++==== XXX$$$$",
"<<33oooo;;==++++----77777777-===;;**55557777----OO++==== XXX$$$$",
"33<<OOOO----++OO------------;===;;*;********====++@@==--OOO+$$$$",
"33<<OOOO----++OO------------;-==;**;********====++@@==--OOO+$$$$",
"11<<OOOO----++++----------------**;;******======+++@====OO++%%$$",
"1111OOOO----++++----------------**;;****========+++@====OO++%%%%",
"11<1XXXXOOOO==------++++@@@@----;===OOOOOOOO----====OO++  ..$$$$",
"11<<XXXXOOOO==------++++@@@@----;;;;OOOOOOOO----====O+++  ..$$$$",
"133<  XXOOOO====----++++@@@@----;;;;OOOOOOOO---=--==OO++ ...%%$$",
"11<< XXXOOOO====----++++@@@@----;;;;OOOOOOOO---=--==OO++....%%$$",
"333< XXXOOOO++++****====----OOOOOOO#--*-****-;==@@@@@@@@    $$$$",
"333<  XXOOOO++++****====----OOOOOOOO--******;;==@@@@@@@@    $$$$",
"33<<..XXOOOOOO++******==----OOOO@@OO---*****;===@@@@@@@+  X $$$$",
"33<<....OOOOOO++********----OOOO@@OO----****;===@@@@@@@+  XX$$$$",
"3333,,,,XXXX@@OOOOOOOOOOOO@@----====OOOOOOOOOOOO++++X...$$&&,:::",
"3333,,,,XXXX@@OOOOOOOOOOOO@@----====OOOOOOOOOOOO++++XX..&$&&,,::",
"3333,,,,XXXX##OOOOOOOOOO@@@@----====OOOOOOOOOO+OOO++XX. &&&&::::",
"3333,,,,XXXX@@@OOOOOOOOO@@@@----====OOOOOOOOOO+@OO++XXX &&&&::::",
"3333<<<<%%%$@OOOXXXXXXXXOOOO@@@@@+++OOOO ...XXX.OOOO$$%%,,,,<333",
"3333<<<<%%%$@@OOXXXXXXXXOOOO@@@@@+++OOOO....XX  OOOO$$%%,,,,<333",
"3333<<<<%%$$OOOOXXXXXX  OOOO@@@@OO++OOOO....XXXXOOOO$%%%,,,,3333",
"3333<<<<%%%%OOOOXXXXXX  OOOO@@@@OO++OOOO....XXXXOOOO$%%%,,,,3333",
"<<33<<<<<<<<%%&&%%%%%%$$XXXXXXXX .XXXXXX%%%%%%%%%%%%$$$$3333<<<<",
"<<33<<<<<<<<%%&&%%%%$$$$XXXXXXXX. XXXX.X%%%%%%%%%%%%%$$$3333<<<<",
"<2<3<<3<<<<<&&&&%%%%$$$$XXXXX.XX.XXX....%%%%%%%%%%%%%%$$3333<<<<",
"22<<<<33<<<<&&&&%%%%$$$$XXXX..XXXXXX....%%%%%%%%%%%%%%&&3333<<<<",
"3333333333333333<<<<::::$$$$%%%%$$$$$$$$%%%%,,::2333333333333333",
"333333333333333333<<::::$$$$%%%%$$$$$$$$&&%%,,::2333333333333333",
"33333333333333333333>>::%%$$%%%%$$$$%$$$&&&&,,::3333333333333333",
"33333333333333333333>>::%$$$%%%%$$$$%$$$&&&&,,::3333333333333333"
};
