/* XPM */
static char *abd24f653be04465ef8f4e4916cc0083v3pi6DbErrAe154D[] = {
/* columns rows colors chars-per-pixel */
"64 64 4 1 ",
"  c #353535",
". c #356802",
"X c #68CE02",
"o c #9BFF35",
/* pixels */
"XXXXooooXXXXooooXXXXoooooooo        ooooXXXXooooXXXXoooooooooooo",
"XXXXooooXXXXooooXXXXoooooooo        ooooXXXXooooXXXXoooooooooooo",
"XXXXooooXXXXooooXXXXoooooooo        ooooXXXXooooXXXXoooooooooooo",
"XXXXooooXXXXooooXXXXoooooooo        ooooXXXXooooXXXXoooooooooooo",
"ooooXXXX....XXXXooooXXXX    ooooXXXX    ....XXXXooooXXXXooooXXXX",
"ooooXXXX....XXXXooooXXXX    ooooXXXX    ....XXXXooooXXXXooooXXXX",
"ooooXXXX....XXXXooooXXXX    ooooXXXX    ....XXXXooooXXXXooooXXXX",
"ooooXXXX....XXXXooooXXXX    ooooXXXX    ....XXXXooooXXXXooooXXXX",
"XXXXooooXXXXoooo....oooo    ooooXXXX    XXXXoooo....ooooXXXXoooo",
"XXXXooooXXXXoooo....oooo    ooooXXXX    XXXXoooo....ooooXXXXoooo",
"XXXXooooXXXXoooo....oooo    ooooXXXX    XXXXoooo....ooooXXXXoooo",
"XXXXooooXXXXoooo....oooo    ooooXXXX    XXXXoooo....ooooXXXXoooo",
"ooooooooooooXXXXoooo    XXXXXXXX........    XXXXooooXXXXoooooooo",
"ooooooooooooXXXXoooo    XXXXXXXX........    XXXXooooXXXXoooooooo",
"ooooooooooooXXXXoooo    XXXXXXXX........    XXXXooooXXXXoooooooo",
"ooooooooooooXXXXoooo    XXXXXXXX........    XXXXooooXXXXoooooooo",
"XXXXooooXXXX            XXXX    ........            ooooXXXXoooo",
"XXXXooooXXXX            XXXX    ........            ooooXXXXoooo",
"XXXXooooXXXX            XXXX    ........            ooooXXXXoooo",
"XXXXooooXXXX            XXXX    ........            ooooXXXXoooo",
"ooooXXXX    oooo    XXXX....    ............    ....    ....XXXX",
"ooooXXXX    oooo    XXXX....    ............    ....    ....XXXX",
"ooooXXXX    oooo    XXXX....    ............    ....    ....XXXX",
"ooooXXXX    oooo    XXXX....    ............    ....    ....XXXX",
"oooooooo            ....    ........    ....            XXXXoooo",
"oooooooo            ....    ........    ....            XXXXoooo",
"oooooooo            ....    ........    ....            XXXXoooo",
"oooooooo            ....    ........    ....            XXXXoooo",
"oooooooo    XXXXXXXX        ....            ........    oooooooo",
"oooooooo    XXXXXXXX        ....            ........    oooooooo",
"oooooooo    XXXXXXXX        ....            ........    oooooooo",
"oooooooo    XXXXXXXX        ....            ........    oooooooo",
"        ........    ....................................        ",
"        ........    ....................................        ",
"        ........    ....................................        ",
"        ........    ....................................        ",
"oooo    ....    ........    ........    ........    ....    XXXX",
"oooo    ....    ........    ........    ........    ....    XXXX",
"oooo    ....    ........    ........    ........    ....    XXXX",
"oooo    ....    ........    ........    ........    ....    XXXX",
"XXXXoooo        ....        ....            ....        oooooooo",
"XXXXoooo        ....        ....            ....        oooooooo",
"XXXXoooo        ....        ....            ....        oooooooo",
"XXXXoooo        ....        ....            ....        oooooooo",
"ooooooooXXXX            XXXX    ........            XXXXooooXXXX",
"ooooooooXXXX            XXXX    ........            XXXXooooXXXX",
"ooooooooXXXX            XXXX    ........            XXXXooooXXXX",
"ooooooooXXXX            XXXX    ........            XXXXooooXXXX",
"ooooXXXXXXXXXXXXXXXX    XXXXXXXX....XXXX    XXXXXXXXXXXXXXXXoooo",
"ooooXXXXXXXXXXXXXXXX    XXXXXXXX....XXXX    XXXXXXXXXXXXXXXXoooo",
"ooooXXXXXXXXXXXXXXXX    XXXXXXXX....XXXX    XXXXXXXXXXXXXXXXoooo",
"ooooXXXXXXXXXXXXXXXX    XXXXXXXX....XXXX    XXXXXXXXXXXXXXXXoooo",
"ooooXXXXXXXXXXXX    XXXXXXXXoooo....XXXXXXXX    XXXXXXXXXXXXoooo",
"ooooXXXXXXXXXXXX    XXXXXXXXoooo....XXXXXXXX    XXXXXXXXXXXXoooo",
"ooooXXXXXXXXXXXX    XXXXXXXXoooo....XXXXXXXX    XXXXXXXXXXXXoooo",
"ooooXXXXXXXXXXXX    XXXXXXXXoooo....XXXXXXXX    XXXXXXXXXXXXoooo",
"XXXXooooXXXXXXXXXXXX....    XXXX....    ........XXXXXXXXoooooooo",
"XXXXooooXXXXXXXXXXXX....    XXXX....    ........XXXXXXXXoooooooo",
"XXXXooooXXXXXXXXXXXX....    XXXX....    ........XXXXXXXXoooooooo",
"XXXXooooXXXXXXXXXXXX....    XXXX....    ........XXXXXXXXoooooooo",
"ooooXXXXooooooooXXXXXXXXXXXX    XXXXXXXXXXXXXXXXooooooooooooXXXX",
"ooooXXXXooooooooXXXXXXXXXXXX    XXXXXXXXXXXXXXXXooooooooooooXXXX",
"ooooXXXXooooooooXXXXXXXXXXXX    XXXXXXXXXXXXXXXXooooooooooooXXXX",
"ooooXXXXooooooooXXXXXXXXXXXX    XXXXXXXXXXXXXXXXooooooooooooXXXX"
};
