/* XPM */
static char *_c8333ad184e4968c65d90bed4a601e6fEu0A9I4dmyAktdK[] = {
/* columns rows colors chars-per-pixel */
"64 64 7 1 ",
"  c black",
". c #356802",
"X c #806F1F",
"o c #68CE02",
"O c #AF8F3F",
"+ c #9BFF35",
"@ c #D0C78F",
/* pixels */
"oooo++++oooo++++oooo++++++++        ++++oooo++++oooo++++++++++++",
"oooo++++oooo++++oooo++++++++        ++++oooo++++oooo++++++++++++",
"oooo++++oooo++++oooo++++++++        ++++oooo++++oooo++++++++++++",
"oooo++++oooo++++oooo++++++++        ++++oooo++++oooo++++++++++++",
"++++oooo....oooo++++oooo    @@@@@@@@    ....oooo++++oooo++++oooo",
"++++oooo....oooo++++oooo    @@@@@@@@    ....oooo++++oooo++++oooo",
"++++oooo....oooo++++oooo    @@@@@@@@    ....oooo++++oooo++++oooo",
"++++oooo....oooo++++oooo    @@@@@@@@    ....oooo++++oooo++++oooo",
"oooo++++oooo++++....    @@@@        OOOO    ++++....++++oooo++++",
"oooo++++oooo++++....    @@@@        OOOO    ++++....++++oooo++++",
"oooo++++oooo++++....    @@@@        OOOO    ++++....++++oooo++++",
"oooo++++oooo++++....    @@@@        OOOO    ++++....++++oooo++++",
"++++++++++++oooo++++    @@@@        OOOO    OOOO        ++++++++",
"++++++++++++oooo++++    @@@@        OOOO    OOOO        ++++++++",
"++++++++++++oooo++++    @@@@        OOOO    OOOO        ++++++++",
"++++++++++++oooo++++    @@@@        OOOO    OOOO        ++++++++",
"oooo++++oooo++++oooo    @@@@            OOOO    @@@@@@@@    ++++",
"oooo++++oooo++++oooo    @@@@            OOOO    @@@@@@@@    ++++",
"oooo++++oooo++++oooo    @@@@            OOOO    @@@@@@@@    ++++",
"oooo++++oooo++++oooo    @@@@            OOOO    @@@@@@@@    ++++",
"++++oooo++++oooo        OOOO@@@@            @@@@        oooooooo",
"++++oooo++++oooo        OOOO@@@@            @@@@        oooooooo",
"++++oooo++++oooo        OOOO@@@@            @@@@        oooooooo",
"++++oooo++++oooo        OOOO@@@@            @@@@        oooooooo",
"++++++++                OOOO    @@@@        @@@@        oooo++++",
"++++++++                OOOO    @@@@        @@@@        oooo++++",
"++++++++                OOOO    @@@@        @@@@        oooo++++",
"++++++++                OOOO    @@@@        @@@@        oooo++++",
"++++            XXXX    OOOO        @@@@    @@@@            ++++",
"++++            XXXX    OOOO        @@@@    @@@@            ++++",
"++++            XXXX    OOOO        @@@@    @@@@            ++++",
"++++            XXXX    OOOO        @@@@    @@@@            ++++",
"oooo        XXXX        OOOOOOOO        @@@@@@@@        ++++++++",
"oooo        XXXX        OOOOOOOO        @@@@@@@@        ++++++++",
"oooo        XXXX        OOOOOOOO        @@@@@@@@        ++++++++",
"oooo        XXXX        OOOOOOOO        @@@@@@@@        ++++++++",
"        XXXX    XXXX    OOOO    OOOO        OOOO            oooo",
"        XXXX    XXXX    OOOO    OOOO        OOOO            oooo",
"        XXXX    XXXX    OOOO    OOOO        OOOO            oooo",
"        XXXX    XXXX    OOOO    OOOO        OOOO            oooo",
"    XXXX    XXXX        XXXX        OOOO    OOOO            ++++",
"    XXXX    XXXX        XXXX        OOOO    OOOO            ++++",
"    XXXX    XXXX        XXXX        OOOO    OOOO            ++++",
"    XXXX    XXXX        XXXX        OOOO    OOOO            ++++",
"        XXXX            XXXXXXXX        OOOOOOOO            ++++",
"        XXXX            XXXXXXXX        OOOOOOOO            ++++",
"        XXXX            XXXXXXXX        OOOOOOOO            ++++",
"        XXXX            XXXXXXXX        OOOOOOOO            ++++",
"oooo                    XXXX    XXXX        OOOO        oooo++++",
"oooo                    XXXX    XXXX        OOOO        oooo++++",
"oooo                    XXXX    XXXX        OOOO        oooo++++",
"oooo                    XXXX    XXXX        OOOO        oooo++++",
"++++    XXXX                        XXXX    OOOO        ....oooo",
"++++    XXXX                        XXXX    OOOO        ....oooo",
"++++    XXXX                        XXXX    OOOO        ....oooo",
"++++    XXXX                        XXXX    OOOO        ....oooo",
"++++++++                                            ++++oooo++++",
"++++++++                                            ++++oooo++++",
"++++++++                                            ++++oooo++++",
"++++++++                                            ++++oooo++++",
"++++++++++++oooo                            oooo++++oooo++++++++",
"++++++++++++oooo                            oooo++++oooo++++++++",
"++++++++++++oooo                            oooo++++oooo++++++++",
"++++++++++++oooo                            oooo++++oooo++++++++"
};
